<?xml version="1.0" encoding="UTF-8"?>
<svg  id="Layer_1" data-name="Layer 1" xmlns="http://www.w3.org/2000/svg" viewBox="0 0 580 61.49">
  <defs>
    <style>
      .cls-1, .cls-2, .cls-3 {
        fill: #fff;
      }

      .cls-4 {
        font-size: 10.44px;
      }

      .cls-4, .cls-5 {
        font-family: Arial-Black, Arial;
        font-weight: 800;
      }

      .cls-4, .cls-6 {
        fill: #0a0a0a;
      }

      .cls-2 {
        fill-rule: evenodd;
      }

      .cls-3, .cls-7 {
        stroke: #000;
        stroke-miterlimit: 10;
        stroke-width: .75px;
      }

      .cls-8 {
        fill: #ce1126;
      }

      .cls-9 {
        fill: #683c1b;
      }

      .cls-10 {
        letter-spacing: 0em;
      }

      .cls-11 {
        letter-spacing: -.07em;
      }

      .cls-7 {
        fill: none;
      }

      .cls-5 {
        font-size: 4.93px;
      }

      .cls-12 {
        fill: #a16f3a;
      }

      .cls-13 {
        letter-spacing: -.02em;
      }

      .cls-14 {
        letter-spacing: 0em;
      }

      .cls-15 {
        fill: #0038a8;
      }

      .cls-16 {
        fill: #fcd116;
      }

      .cls-6 {
        font-family: ArialMT, Arial;
        font-size: 9.4px;
      }
    </style>
  </defs>
  <circle class="cls-3" cx="30.74" cy="30.74" r="30.37"/>
  <path id="Red" class="cls-8" d="m53.68,30.7c0,12.69-10.28,22.97-22.97,22.97-.02,0-.03,0-.05,0V7.73s.03,0,.05,0c12.69,0,22.97,10.28,22.97,22.97Z"/>
  <path id="Blue" class="cls-15" d="m30.67,7.73v45.94c-12.62-.08-22.82-10.34-22.82-22.97,0-6.32,2.55-12.04,6.68-16.19,4.13-4.15,9.83-6.74,16.14-6.78Z"/>
  <path id="White_Triangle" data-name="White Triangle" class="cls-1" d="m46.96,14.46l-16.29,16.29L14.47,14.56c4.16-4.19,9.93-6.78,16.29-6.78s12.04,2.55,16.19,6.68Z"/>
  <circle class="cls-7" cx="30.82" cy="30.73" r="22.97"/>
  <text class="cls-5" transform="translate(23.67 54.56) rotate(-161.57)"><tspan x="0" y="0"> </tspan></text>
  <text class="cls-5" transform="translate(22.22 54.1) rotate(-157.07)"><tspan x="0" y="0">•</tspan></text>
  <text class="cls-5" transform="translate(20.07 53.18) rotate(-152.62)"><tspan x="0" y="0"> </tspan></text>
  <text class="cls-5" transform="translate(18.76 52.59) rotate(-146.47)"><tspan x="0" y="0">N</tspan></text>
  <text class="cls-5" transform="translate(15.56 50.48) rotate(-137.99)"><tspan x="0" y="0">A</tspan></text>
  <text class="cls-5" transform="translate(13.11 48.31) rotate(-130.82)"><tspan x="0" y="0">T</tspan></text>
  <text class="cls-5" transform="translate(10.93 45.73) rotate(-124.95)"><tspan x="0" y="0">I</tspan></text>
  <text class="cls-5" transform="translate(9.87 44.35) rotate(-118.43)"><tspan x="0" y="0">O</tspan></text>
  <text class="cls-5" transform="translate(8.03 40.98) rotate(-109.54)"><tspan x="0" y="0">N</tspan></text>
  <text class="cls-5" transform="translate(6.74 37.4) rotate(-101.03)"><tspan x="0" y="0">A</tspan></text>
  <text class="cls-5" transform="translate(6.06 33.86) rotate(-93.36)"><tspan x="0" y="0">L</tspan></text>
  <text class="cls-5" transform="translate(5.9 30.72) rotate(-88.1)"><tspan x="0" y="0"> </tspan></text>
  <text class="cls-5" transform="translate(5.89 29.27) rotate(-82.26)"><tspan x="0" y="0">C</tspan></text>
  <text class="cls-5" transform="translate(6.34 25.72) rotate(-73.66)"><tspan x="0" y="0">O</tspan></text>
  <text class="cls-5" transform="translate(7.37 22.03) rotate(-64.14)"><tspan x="0" y="0">M</tspan></text>
  <text class="cls-5" transform="translate(9.26 18.08) rotate(-54.07)"><tspan x="0" y="0">M</tspan></text>
  <text class="cls-5" transform="translate(11.91 14.53) rotate(-47.05)"><tspan x="0" y="0">I</tspan></text>
  <text class="cls-5" transform="translate(13.07 13.21) rotate(-41.16)"><tspan x="0" y="0">S</tspan></text>
  <text class="cls-5" transform="translate(15.56 11.01) rotate(-33.52)"><tspan x="0" y="0">S</tspan></text>
  <text class="cls-5" transform="translate(18.39 9.18) rotate(-27.64)"><tspan x="0" y="0">I</tspan></text>
  <text class="cls-5" transform="translate(19.9 8.31) rotate(-21.08)"><tspan x="0" y="0">O</tspan></text>
  <text class="cls-5" transform="translate(23.46 6.91) rotate(-12.19)"><tspan x="0" y="0">N</tspan></text>
  <text class="cls-5" transform="translate(27.31 6.14) rotate(-5.98)"><tspan x="0" y="0"> </tspan></text>
  <text class="cls-5" transform="translate(28.75 5.88) rotate(.93)"><tspan x="0" y="0">O</tspan></text>
  <text class="cls-5" transform="translate(32.61 5.9) rotate(8.96)"><tspan x="0" y="0">N</tspan></text>
  <text class="cls-5" transform="translate(36.47 6.57) rotate(15.19)"><tspan x="0" y="0"> </tspan></text>
  <text class="cls-5" transform="translate(37.94 6.96) rotate(19.05)"><tspan x="0" y="0">I</tspan></text>
  <text class="cls-5" transform="translate(39.6 7.45) rotate(25.6)"><tspan x="0" y="0">N</tspan></text>
  <text class="cls-5" transform="translate(43.08 9.11) rotate(34.17)"><tspan x="0" y="0">D</tspan></text>
  <text class="cls-5" transform="translate(46.07 11.19) rotate(40.35)"><tspan x="0" y="0">I</tspan></text>
  <text class="cls-5" transform="translate(47.44 12.25) rotate(46.79)"><tspan x="0" y="0">G</tspan></text>
  <text class="cls-5" transform="translate(50.08 15.07) rotate(55.01)"><tspan x="0" y="0">E</tspan></text>
  <text class="cls-5" transform="translate(52.02 17.77) rotate(63.31)"><tspan x="0" y="0">N</tspan></text>
  <text class="cls-5" transform="translate(53.76 21.19) rotate(72.19)"><tspan x="0" y="0">O</tspan></text>
  <text class="cls-5" transform="translate(54.96 24.85) rotate(81.13)"><tspan x="0" y="0">U</tspan></text>
  <text class="cls-5" transform="translate(55.54 28.69) rotate(89.07)"><tspan x="0" y="0">S</tspan></text>
  <text class="cls-5" transform="translate(55.55 32.07) rotate(94.89)"><tspan x="0" y="0"> </tspan></text>
  <text class="cls-5" transform="translate(55.48 33.54) rotate(100.49)"><tspan x="0" y="0">P</tspan></text>
  <text class="cls-5" transform="translate(54.89 36.82) rotate(108.21)"><tspan x="0" y="0">E</tspan></text>
  <text class="cls-5" transform="translate(53.89 39.97) rotate(116.51)"><tspan x="0" y="0">O</tspan></text>
  <text class="cls-5" transform="translate(52.16 43.44) rotate(124.82)"><tspan x="0" y="0">P</tspan></text>
  <text class="cls-5" transform="translate(50.26 46.17) rotate(132.14)"><tspan x="0" y="0">L</tspan></text>
  <text class="cls-5" transform="translate(48.22 48.47) rotate(139.49)"><tspan x="0" y="0">E</tspan></text>
  <text class="cls-5" transform="translate(45.68 50.65) rotate(147.17)"><tspan x="0" y="0">S</tspan></text>
  <text class="cls-5" transform="translate(42.83 52.45) rotate(152.75)"><tspan x="0" y="0"> </tspan></text>
  <text class="cls-5" transform="translate(41.49 53.16) rotate(157.2)"><tspan x="0" y="0">•</tspan></text>
  <text class="cls-5" transform="translate(23.78 58.29) rotate(10.8)"><tspan x="0" y="0">1</tspan></text>
  <text class="cls-5" transform="translate(27.24 58.94) rotate(3.72)"><tspan x="0" y="0">9</tspan></text>
  <text class="cls-5" transform="translate(30.74 59.15) rotate(-3.27)"><tspan x="0" y="0">9</tspan></text>
  <text class="cls-5" transform="translate(34.23 58.94) rotate(-10.31)"><tspan x="0" y="0">7</tspan></text>
  <g>
    <circle class="cls-16" cx="30.67" cy="30.75" r="10.58" transform="translate(-3.56 57.48) rotate(-83.07)"/>
    <g>
      <polygon class="cls-16" points="28.48 13.55 27.44 14.58 28.86 21.7 29.49 21.6 28.48 13.55"/>
      <polygon class="cls-16" points="32.84 13.55 33.89 14.58 32.46 21.7 31.83 21.6 32.84 13.55"/>
      <polygon class="cls-16" points="31.85 12.57 31.26 21.56 30.66 21.52 30.05 21.56 29.47 12.57 30.66 11.37 31.85 12.57"/>
    </g>
    <g>
      <polygon class="cls-16" points="47.87 28.57 46.84 27.52 39.72 28.95 39.81 29.58 47.87 28.57"/>
      <polygon class="cls-16" points="47.87 32.93 46.84 33.98 39.72 32.55 39.81 31.92 47.87 32.93"/>
      <polygon class="cls-16" points="50.04 30.75 48.85 31.94 39.86 31.35 39.89 30.75 39.86 30.14 48.85 29.55 50.04 30.75"/>
    </g>
    <g>
      <polygon class="cls-16" points="13.46 28.57 14.5 27.52 21.61 28.95 21.52 29.58 13.46 28.57"/>
      <polygon class="cls-16" points="13.46 32.93 14.5 33.98 21.61 32.55 21.52 31.92 13.46 32.93"/>
      <polygon class="cls-16" points="11.29 30.75 12.48 31.94 21.47 31.35 21.44 30.75 21.47 30.14 12.48 29.55 11.29 30.75"/>
    </g>
    <g>
      <polygon class="cls-16" points="32.84 47.95 33.89 46.92 32.46 39.8 31.83 39.9 32.84 47.95"/>
      <polygon class="cls-16" points="28.48 47.95 27.44 46.92 28.86 39.8 29.49 39.9 28.48 47.95"/>
      <polygon class="cls-16" points="31.86 48.93 30.67 50.13 29.47 48.93 30.06 39.94 30.67 39.98 31.27 39.94 31.86 48.93"/>
    </g>
    <g>
      <polygon class="cls-16" points="41.29 17.05 39.82 17.04 35.8 23.08 36.31 23.46 41.29 17.05"/>
      <polygon class="cls-16" points="44.37 20.13 44.38 21.6 38.34 25.62 37.96 25.11 44.37 20.13"/>
      <polygon class="cls-16" points="44.37 17.05 44.37 18.74 37.59 24.68 37.19 24.23 36.74 23.82 42.68 17.05 44.37 17.05"/>
    </g>
    <g>
      <polygon class="cls-16" points="44.37 41.37 44.38 39.9 38.34 35.88 37.96 36.39 44.37 41.37"/>
      <polygon class="cls-16" points="41.29 44.46 39.82 44.47 35.79 38.42 36.31 38.04 41.29 44.46"/>
      <polygon class="cls-16" points="44.37 44.45 42.68 44.45 36.74 37.68 37.19 37.27 37.19 37.27 37.6 36.82 44.37 42.76 44.37 44.45"/>
    </g>
    <g>
      <polygon class="cls-16" points="16.96 20.13 16.95 21.6 22.99 25.62 23.37 25.11 16.96 20.13"/>
      <polygon class="cls-16" points="20.04 17.04 21.51 17.03 25.54 23.08 25.03 23.46 20.04 17.04"/>
      <polygon class="cls-16" points="24.59 23.82 24.14 24.23 23.74 24.68 16.96 18.74 16.96 17.05 18.65 17.05 24.59 23.82"/>
    </g>
    <g>
      <polygon class="cls-16" points="20.04 44.46 21.51 44.47 25.54 38.42 25.03 38.04 20.04 44.46"/>
      <polygon class="cls-16" points="16.96 41.37 16.95 39.9 22.99 35.88 23.37 36.39 16.96 41.37"/>
      <polygon class="cls-16" points="24.58 37.68 18.64 44.45 16.97 44.46 16.97 44.44 16.97 42.77 23.74 36.83 24.14 37.28 24.14 37.28 24.58 37.68"/>
      <polygon class="cls-16" points="16.97 44.44 16.97 44.46 16.95 44.46 16.97 44.44"/>
    </g>
  </g>
  <polygon class="cls-16" points="18.55 15.1 18.91 16.21 17.96 15.54 17 16.21 17.36 15.1 16.39 14.37 17.6 14.37 17.95 13.26 18.31 14.37 19.51 14.37 18.55 15.1"/>
  <polygon class="cls-16" points="31.26 10.06 31.62 11.17 30.67 10.51 29.71 11.17 30.07 10.06 29.11 9.34 30.31 9.34 30.67 8.22 31.03 9.34 32.22 9.34 31.26 10.06"/>
  <polygon class="cls-16" points="43.98 15.1 44.34 16.21 43.39 15.54 42.43 16.21 42.79 15.1 41.83 14.37 43.03 14.37 43.39 13.26 43.75 14.37 44.94 14.37 43.98 15.1"/>
  <polygon class="cls-9" points="36.92 22.91 36.05 25.53 35.59 25.18 25.21 38.77 24.69 38.37 35.07 24.78 34.62 24.44 36.92 22.91"/>
  <path class="cls-12" d="m33.99,37.4c-.6.72-3.41,1.08-3.41,1.08,0,0-2.81-.36-3.41-1.08-.34-1-.5-3.6-.47-4.22,0,0,.47-.45.57-1.56.12-1.34-.32-1.93-.32-1.93,0,0,.26-2.08.28-3.15s0-1.88,0-1.88h1.89v1.6h.62v-1.6h1.7v1.6h.62v-1.6h1.89s-.02.81,0,1.88.28,3.15.28,3.15c0,0-.44.59-.32,1.93.1,1.11.57,1.56.57,1.56.03.62-.13,3.22-.47,4.22Z"/>
  <g>
    <path class="cls-2" d="m33.4,32.86s-.04.02-.06.02c-.03,0-.04.02-.07.02h-.04c-.07,0-.09.06-.16.06,0,0,0,0,0,0,0-.05.04-.07.05-.12,0-.02,0-.05.02-.06.03.02.05.05.08.05.03,0,.05-.03.06-.06.06.01.09.04.12.09Z"/>
    <path class="cls-2" d="m33.37,32.75s0-.01,0-.02c0-.03.02-.05.05-.07.02,0,.04-.03.04,0,0,.03-.02.04-.04.06-.01.02-.02.04-.05.04,0,0,0,0,0,0Z"/>
    <path class="cls-2" d="m33.78,34.99s.02.02.02.03c0,.02-.01.03-.02.04,0,0,0,.02-.02.02-.03,0-.04-.03-.06-.04-.07-.03-.13-.06-.13-.13,0-.03,0-.06.03-.06.03,0,.04,0,.07-.02.04.03.07.04.09.08.02.03,0,.05.02.08Z"/>
    <path class="cls-2" d="m32.29,34.39s.04-.02.06-.03c.06-.04.12-.06.12-.13,0-.02,0-.04,0-.06-.04,0-.08-.01-.08-.05s0-.06.01-.09h-.02s0-.01,0-.02c0-.02-.02-.02-.02-.04,0,0,0,0,0-.01h0s.01.03.03.03c0,0,0,0,.01,0,0,0,.01.01.02.01.02,0,.02-.03.03-.05h0s-.04,0-.07,0h0c.09-.04.15-.05.24-.08.06-.02.12-.05.12-.11v-.06s.03-.02.05-.02c0,0,.01,0,.02,0,.02,0,.02-.03.02-.06.01-.03.03-.05.03-.08,0-.01-.02,0-.02-.02,0-.03.03-.03.06-.04.02.02.01.05.04.05.01,0,.02,0,.04,0,0,0,.01,0,.02,0,0,.02-.02.03-.03.05h.03s.04-.02.07-.02.03.04.06.04h.04s0,0,0,0c.03,0,.02.04.04.06.02.02.03.02.05.03.03.02.04.04.07.04.01,0,.01-.01.02-.02.07.03.09.08.09.15,0,0,0,0,0,0-.01,0-.02,0-.03,0,0,.06.02.09.02.14,0,0,0,0,0,.02,0,.03.05.03.05.07,0,.04,0,.08-.03.1-.02.01-.04.02-.07.02-.03,0-.02-.05-.05-.05-.02,0-.03.02-.05.04-.02.02-.05,0-.07.03-.02.02,0,.05-.02.08-.02.04-.06.03-.11.04-.03,0-.05.04-.08.04-.03,0-.04,0-.07,0-.01,0-.01-.02-.03-.02-.06,0-.08.04-.14.04s-.09,0-.15-.02c-.03-.01-.05-.03-.08-.03-.11,0-.14.11-.25.11-.02,0-.02-.02-.02-.04Z"/>
    <path class="cls-2" d="m33.8,31.5s.02.01.03.01c0,0,0,0,.02,0h0s-.02.04-.02.06v.04h-.01s-.05-.05-.09-.08c.02-.01.04,0,.06-.02h0Z"/>
    <path class="cls-2" d="m33.89,31.41s.01,0,.02,0c0,.02-.02.03-.02.05,0,0,0,.01,0,.02,0,0,0,0,0,0-.02-.02-.06-.02-.06-.04,0,0,0,0,0-.02v-.05s.02.02.04.02c.01,0,.02-.01.02,0Z"/>
    <path class="cls-2" d="m33.72,31.4s.06.03.06.06c0,.01,0,.02-.02.03-.02,0-.03-.02-.05-.04-.02-.02-.04-.04-.04-.07,0,0,0,0,0-.01.02,0,.03,0,.05,0,0-.02,0-.03.02-.04,0,0,.02,0,.02.02,0,.02-.02.03-.04.05Z"/>
    <path class="cls-2" d="m34.65,40.19v.02s0,.04,0,.04c0,.01,0,.02-.01.02-.02,0-.03-.02-.04-.04,0,0-.01.01-.02.01s-.01,0-.02,0c.02-.03.04-.06.08-.06.01,0,.02.01.03.02Z"/>
    <path class="cls-2" d="m34.93,33.91v-.04s-.04-.02-.06-.04c0-.01-.02-.02-.02-.03,0-.04.02-.06.02-.09,0,0,0,0,0,0h-.02s-.04,0-.07,0c-.04,0-.04-.06-.04-.1,0-.02.02-.02.03-.04.01-.02.01-.03.03-.05,0,0,.02,0,.02-.02,0-.02-.02-.04-.02-.06,0-.02,0-.03,0-.05,0-.02,0-.02,0-.04,0,0,0,0,0-.01.02,0,.04,0,.06,0,0,0,0,0,0-.01,0-.01,0-.02,0-.03.01-.02.03,0,.06,0,0-.06,0-.14.06-.15.02.04.04.06.04.11,0,.06-.04.09-.04.15v.06s0,.07.03.11v.04s0,.04,0,.06c0,.02.03.02.03.04l-.04.17s.05.04.05.07,0,.07-.04.08c-.05.02-.1,0-.12.05-.03-.02-.03-.05-.03-.09-.01,0-.02,0-.04,0-.03,0-.04-.03-.06-.05h0s.06,0,.06,0c.03,0,.04-.03.07-.03,0,0,.01,0,.02,0Z"/>
    <path class="cls-2" d="m33.27,30.02s.02.04.02.07c-.02,0-.02-.02-.03-.03-.01,0-.01.02-.01.04,0,.03,0,.04,0,.07h0s0-.03.01-.03c.02,0,.04,0,.06.03,0-.01,0-.04.02-.04.03,0,.04.03.04.06,0,0,0,.01,0,.02,0,0,0,0,0,0,.03,0,.05,0,.08,0,.05,0,.07.03.11.03h.03s.02,0,.04,0h.04s.05-.01.09-.02c.01,0,.02-.02.03-.02.02,0,.02.02.04.02.02,0,.04,0,.05-.03v-.04s.04.03.07.03c.01,0,.02-.01.03-.02.03-.01.05-.01.08-.03-.02-.02-.02-.04-.02-.06,0-.04.06-.05.1-.05.01,0,.03.01.03.03,0,0,0,.01,0,.02,0,.03.02.04.02.06,0,0,0,0,0,0,0,0-.01,0-.02,0s0,0-.01.01c.02.02.03.04.06.04.02,0,.04,0,.04-.03v-.02s0,0,0,0c.04.03.05.06.09.1.02.02.04.02.06.03.04.03.04.06.07.1.01.02.02.04.05.04,0,0,0,0,0,0-.02.02-.02.03-.02.05,0,.02-.02.02-.02.04,0,.02.03.02.05.03.03.03.06.03.1.03.02,0,.04,0,.07.01.03,0,.03.03.05.05,0,.05.04.06.06.11-.04,0-.06.02-.1.02,0,0,.02,0,.02.01-.02,0-.05.02-.05.05,0,.02.02,0,.04.02.01,0,.01.02.02.03.01.02.02.03.02.05,0,.02-.02.03-.03.05-.04.06-.07.1-.07.17,0,.01,0,.02,0,.03.02,0,.04,0,.06,0,0,.03-.01.04-.03.07h0s0,0,0,0h.01s0,.04,0,.07c0,.02-.02.02-.04.03.05.04.05.1.05.16v.02s-.01,0-.02-.02c-.02.01-.02.03-.02.05v.02s.01,0,.02,0c0,0,0,.01,0,.02,0,.06.06.08.06.14,0,.02,0,.03,0,.05.03,0,.07,0,.07.03,0,0,0,0,0,.01.03,0,.04.03.06.06.01.01.04,0,.04.02,0,.06-.03.09-.07.14-.01.02-.04,0-.04.03,0,.02-.01.03-.01.06,0,.01,0,.03.01.03.03,0,.04,0,.07,0,0,0,0-.01,0-.02,0-.01-.01-.02-.01-.03.08,0,.11.07.15.14,0,.02.03.02.04.04.02.03.04.05.06.08,0,.02,0,.04.02.05.04.03.06.05.07.1v.02s-.04-.05-.05-.08c0-.02-.03-.03-.05-.04-.04-.02-.06-.01-.1-.04-.02-.01-.04-.02-.04-.04,0-.03-.02-.05-.02-.09h-.02s-.03,0-.05.01c0,0,0,.03-.02.03,0,0,0,0,0,0,0-.03-.02-.07-.06-.07s-.03.05-.04.08c-.03-.02-.04-.03-.07-.05h0s-.03.06-.06.06c-.01,0,0-.02-.02-.02-.03-.02-.06-.03-.1-.03,0,0,0,0-.01,0,0-.02-.02-.04-.05-.04-.02,0-.03.01-.03.03,0,.02-.01.04-.03.05-.01,0-.02,0-.04,0,.01-.05-.01-.08-.03-.13-.02-.06-.03-.13-.1-.13-.01,0-.02,0-.03,0,0,0,0,.02-.02.02-.02,0-.01-.04-.03-.04-.03,0-.05.02-.08.02-.01,0-.02-.02-.02-.03,0-.01-.02-.02-.02-.03,0-.02.02-.04.02-.06,0-.01,0-.01-.02-.02,0,0,0,0,0,0,0,.02,0,.03,0,.05,0,.03.01.04.01.07,0,0,0,.01,0,.02,0,.02.01.03.03.04h.02s.01.01.01.03h.02s0,0,0,0l-.02.1s.02.02.02.04c0,.03.02.05.02.07v.04s0,.05,0,.08c0,.09-.04.14-.06.23.01.05,0,.09.04.13.02.03.05.02.08.04,0,0,.02,0,.02,0,.03.02,0,.06.03.08.02.02.04.03.06.04.02.01.04.02.04.05s-.03.04-.03.06c0,.03.02.05.03.08v.03s-.01.04-.01.04c0,.08.11.08.11.16,0,.04,0,.1-.04.1h-.04s-.06-.02-.1-.02v.05s0,.05,0,.05c0,.03,0,.06.03.08.02.02.05,0,.07.02.02.02,0,.04.02.06.02.05.05.08.08.13.02.03.03.04.03.08,0,.02-.01.04-.03.04-.03,0-.03-.04-.05-.07-.02-.03-.05-.04-.06-.08-.03-.06-.1-.07-.1-.14v-.07c0-.06-.03-.09-.06-.15-.01-.03-.03-.04-.04-.06,0-.02,0-.04-.02-.06-.02-.02-.04-.02-.05-.04-.02.01-.03.03-.03.05,0,.02.02.03.02.05,0,0,0,.01,0,.02,0,.03,0,.04,0,.07,0,.02-.02.03-.02.05,0,.04.04.05.04.09,0,.06.03.09.03.16,0,.02,0,.04,0,.06-.02-.03-.04-.04-.07-.05-.03-.02-.03-.04-.06-.06-.02,0-.03,0-.05-.01-.03-.03-.05-.06-.09-.06-.02,0-.03.02-.05.02-.03,0-.06-.04-.06-.07,0,0,0-.01,0-.02,0,0,.01-.02.02-.03,0-.02,0-.03,0-.06,0-.03.02-.05.02-.09,0-.07-.09-.08-.09-.15v-.06s0-.03,0-.04c0-.02.03-.01.04-.03.02-.03,0-.05.01-.09,0-.04,0-.06.02-.1.01-.02.03-.03.03-.05,0,0,0-.01,0-.02,0-.02,0-.03,0-.05,0-.05-.01-.07-.05-.11h0c-.02-.07-.07-.09-.1-.17-.02-.04-.05-.05-.08-.07-.03-.02-.03-.06-.06-.06-.06,0-.06.08-.08.14,0,.03-.01.06-.04.06-.04,0-.06-.04-.1-.06-.04-.02-.09,0-.09-.05,0-.03.02-.05.02-.09,0-.02,0-.04,0-.06,0-.04.03-.07.03-.11s0-.07-.02-.11v-.03s0-.06-.02-.09c-.01-.01-.03-.02-.04-.03-.02-.06,0-.1-.02-.15-.02-.06-.05-.09-.05-.16,0-.02.02-.03.03-.05.02.01.02.03.04.04.04.03.06.03.09.07.02.03.03.04.06.06h0s-.03-.06-.05-.1c-.02-.03-.04-.05-.04-.09,0-.04-.02-.06-.04-.08-.01-.02-.01-.04-.03-.04,0,0,0,0-.02,0,.02-.02.04-.02.06-.03.04-.01.07-.02.11-.02.06,0,.11.03.14.09.01.04.02.07.04.1.02.02.06.01.06.04,0,.07-.08.1-.15.1,0,0,0,0-.02,0,0,.01,0,.02,0,.03,0,.01.01.02.02.03.01,0,.02.01.03.03.02.05,0,.09.05.12.03.03.07.02.11.04.05,0,.09-.02.13-.06.05-.05.11-.07.11-.14h.07s.02,0,.03,0c.01,0,.02,0,.03,0,.05,0,.08.01.11.05,0-.02-.02-.03-.03-.04-.01-.01-.03-.02-.05-.02-.02,0-.02-.02-.04-.02-.03,0-.04.02-.06.02-.01,0-.03,0-.04,0,0,0,0,0,0-.02,0-.02-.02-.03-.02-.05,0-.02.02-.03.04-.05.01,0,.02-.02.03-.02.01,0,.01.01.02.02,0,0,0,0,0,0,0,0,0-.02,0-.03,0,0,0,0,0-.01v-.04h.04s.01.04.03.04c.03,0,.04-.05.07-.05h0s-.03-.05-.03-.09c0-.05.08-.05.08-.09,0-.02-.01-.05-.04-.05-.05,0-.07.04-.12.04-.04,0-.04-.04-.07-.07,0,0,0-.01,0-.01-.02,0-.02,0-.04,0-.02-.03-.02-.05-.05-.08-.01-.02-.03-.02-.03-.04,0,0,0-.01,0-.02-.02,0-.03,0-.05,0-.02-.01-.01-.04-.03-.05-.01-.01-.03-.01-.04-.03-.02-.04-.02-.07-.04-.11-.03-.04-.07-.03-.12-.03-.02,0-.03,0-.04,0-.03,0-.03-.03-.05-.05l-.09-.09s-.08-.08-.1-.14c0-.01,0-.02-.01-.03,0-.03-.02-.05-.02-.07,0-.02-.02-.05-.02-.08-.01-.05-.02-.09-.07-.11,0-.02.01-.02.01-.04,0-.04-.03-.07-.03-.11.01-.02.04-.03.06-.03,0,.02,0,.06.02.06.02,0,.03-.02.03-.05v-.12s0-.03,0-.06c.02.04.07.02.09.06Z"/>
    <path class="cls-2" d="m34.74,40.07s.02.02.02.03c0,.03,0,.05-.02.09,0,.02,0,.04-.03.04-.01,0-.02-.01-.02-.03,0-.01-.02-.02-.02-.03,0-.05.05-.06.07-.1Z"/>
    <path class="cls-2" d="m35.05,32.77s-.07-.05-.07-.09c0-.03.02-.06.05-.06.01,0,.02,0,.03,0l.02.04s0,.02,0,.03c0,.02.03.03.05.03.02,0,.04.01.06.01.01,0,.02,0,.03,0,0,.02,0,.03,0,.06-.01,0-.02,0-.03,0-.01,0-.02,0-.03,0s-.02,0-.03,0c-.03,0-.03-.02-.06-.04Z"/>
    <path class="cls-2" d="m35.17,37.81s-.03.07-.03.12.03.07.03.12c0,.04-.03.06-.04.1-.04-.05-.06-.09-.07-.16v-.06s-.04-.04-.07-.05c.01-.04.02-.06.02-.09,0-.03.02-.06.05-.06.01.01.02.03.04.04.03.02.07.01.07.04Z"/>
    <path class="cls-2" d="m35.3,33.93s0-.02,0-.03h.01s0,0,.02,0c.02,0,.02-.02.03-.03.01-.01.03,0,.04-.01,0,0,0-.02.02-.02,0,.01,0,.02.01.03.02-.02.02-.03.03-.05,0-.01.02-.01.03-.03,0-.01,0-.03,0-.04.02-.03.04-.03.06-.06,0,.02,0,.03,0,.05,0,.05.03.07.04.12,0,.04,0,.08.03.1-.01.01-.02,0-.04.02.01.02.03.03.05.03,0,0,0,0,0,0,0,.01,0,.02,0,.04,0,.02.02.03.02.05s-.02.03-.03.05c0,0-.01,0-.02-.01,0,.01-.01.02-.02.02-.03,0-.05,0-.07,0,0,.05-.04.1-.09.1,0,.06-.04.1-.04.16,0,0,0,0-.01,0-.02,0-.04,0-.05-.02-.01-.02,0-.03-.01-.05,0,0-.02,0-.02-.02,0-.01.02-.01.02-.02,0,0,0-.01,0-.02,0-.01.02,0,.02-.02,0-.04-.02-.06-.02-.1,0-.02.03-.01.04-.02,0,.01,0,.02,0,.03.02,0,.03.02.05.02.01,0,.02,0,.03,0s.02,0,.03,0c.02,0,.02-.02.04-.03-.06-.05-.09-.09-.15-.15-.03-.03-.03-.06-.07-.07Z"/>
    <path class="cls-2" d="m35.04,38.04s.04.05.04.08c0,.01-.01.02-.02.02-.02,0-.02-.02-.03-.03-.01-.02-.02-.03-.03-.04.02-.02.03-.02.05-.02Z"/>
    <path class="cls-2" d="m36.29,37.59s-.01.04-.03.06c-.01,0-.01.02-.02.03-.01.02-.04.02-.06.03,0,.01,0,.02,0,.03,0,.04-.01.1-.06.1,0,0,0,0,0,0,0,.02,0,.03-.02.05-.02.02-.02.03-.02.05v.06s-.01-.02-.03-.02c-.03,0-.05.02-.09.02-.02,0-.03,0-.05-.01,0,.03-.03.04-.04.06,0,.02-.02.04-.04.04h0s.02.04.04.06c.02.02.05.03.05.06,0,0,0,0,0,.02,0,0,.01.01.01.02s0,.01,0,.02c0,0-.02,0-.03,0-.03,0-.06-.03-.06-.06,0,0,.01-.01.01-.02,0-.03-.03-.04-.04-.06-.02-.03-.03-.07-.07-.07-.03,0-.05.02-.05.05,0,.01,0,.02,0,.04,0,.01-.02,0-.02.02,0,.02.02.02.02.03.03.06.1.07.1.14,0,.02-.01.02-.02.03,0,.02,0,.03-.02.05-.02.05-.02.09-.02.14v.05s-.02.05-.02.08v.05l-.02.11v.15h0s0-.06-.02-.1c-.02-.03-.04-.03-.06-.06.02-.01.03-.03.03-.05-.04,0-.06-.04-.07-.08-.01-.03-.04-.05-.04-.08,0-.02.02-.02.02-.04,0-.05-.04-.08-.04-.13,0-.01.01-.01.02-.02.02-.03.02-.04.02-.07,0-.02-.02-.03-.02-.06,0-.01,0-.02,0-.03,0-.04.01-.07-.01-.1,0,0-.02,0-.03,0-.04-.02-.06-.03-.08-.06-.02-.02-.02-.05-.02-.08,0-.02,0-.04,0-.06,0-.04-.02-.07-.05-.09,0,0-.01-.01-.02-.02-.03-.02-.06-.04-.06-.07,0,0,0,0,0-.02,0-.02-.02-.02-.02-.04-.01-.02-.01-.04-.02-.06-.01-.03-.04-.05-.04-.08,0-.02.02-.02.02-.04,0-.02,0-.03,0-.04,0,0,0-.02,0-.03,0,0,0-.01-.01-.01-.06,0-.09.02-.13.06-.03.02-.04.04-.07.06-.02.01-.05.02-.05.04,0,.02,0,.03,0,.04,0,.02,0,.02,0,.04,0,.03,0,.04,0,.07,0,.04-.02.06-.04.09-.02.02-.03.05-.06.05-.02,0-.02-.02-.04-.02-.02,0-.03.02-.05.03-.02.02-.05.03-.05.06,0,.02,0,.03,0,.05,0,.03-.02.03-.04.06-.03.04-.05.06-.08.1-.01.02-.04.03-.04.06,0,0,0,.01,0,.02,0,.02-.02.03-.02.05,0,0,0,0,0,.02,0,.02,0,.03,0,.05,0,.02,0,.04,0,.06v.04s.01.02.02.03c.02,0,.02.03.04.04,0,0,0,0,0,0,0-.01-.01-.02-.01-.03v-.02s0,0,0,0c.04,0,.04.05.08.07.02.02.03.03.06.04.02,0,.04,0,.04.02s.02.02.03.04c.03.09.05.14.1.23.03.1.09.16.09.27,0,.18-.05.3-.17.42-.08.08-.11.15-.18.25-.04.07-.07.13-.15.13-.01,0-.03,0-.04,0-.03,0-.05-.02-.05-.05,0-.02.02-.03.02-.05,0-.03-.02-.05-.03-.07,0-.01,0-.03-.02-.03-.03-.01-.07-.01-.07-.05,0-.02-.01-.04-.03-.05,0,0,0,0-.01.01,0-.03-.03-.04-.03-.08,0,0,0,0,0,0,.04,0,.08-.01.08-.05,0-.01-.02-.02-.02-.03,0-.03.03-.03.05-.05.04-.03.06-.06.06-.11,0-.03-.01-.04-.02-.07,0-.01,0-.03,0-.04,0-.01-.01-.02-.02-.02-.02,0-.02,0-.04,0h-.04s-.03-.01-.05-.02c-.01.08-.06.12-.09.2,0,0,0,0,0,.01,0,.03-.01.05-.03.08v.03s-.04.02-.07.02c-.05,0-.08-.02-.14-.02-.04,0-.06,0-.09-.02-.05-.02-.08-.05-.14-.06-.03,0-.06,0-.08-.02-.04-.02-.05-.06-.1-.07-.04-.01-.06-.02-.1-.04-.03-.02-.06,0-.09-.03-.05-.03-.08-.04-.12-.06-.03-.01-.04-.03-.07-.04,0,0-.01,0-.02,0-.01,0-.02,0-.03,0-.03,0-.02-.04-.05-.05-.02,0-.04,0-.06,0-.02-.02-.02-.05-.05-.06-.02,0-.03,0-.05-.02-.03-.02,0-.06-.02-.09-.02-.04-.05-.05-.08-.07-.03-.02-.02-.05-.04-.07h-.02s-.02-.08-.05-.12c0,0,0-.01,0-.02,0-.03,0-.05-.02-.07.02,0,.03,0,.04,0,0-.02-.02-.03-.02-.05,0-.03.02-.05.02-.08,0-.06-.06-.08-.06-.14,0-.02,0-.03.02-.04,0,0,.02,0,.02,0,0-.02,0-.03-.01-.04,0-.01-.02-.02-.04-.02s-.01.02-.02.04c-.02-.03-.01-.06-.04-.07.02-.03.03-.05.03-.09,0-.01-.01-.02-.01-.03,0-.02.02-.03.02-.05v-.04s.01-.02.02-.04c0,0,0-.01,0-.02,0,0,0-.01,0-.02,0-.04.03-.06.05-.09.01-.02.02-.03.03-.05,0-.01,0-.02,0-.03.01,0,.02,0,.04,0,.03,0,.05,0,.07-.02.02-.01.02-.02.03-.04.01-.02.02-.05.03-.08.01-.02.02-.03.03-.05.01-.02.03-.04.03-.07,0-.01,0-.02,0-.03.02,0,.03,0,.05,0,0,0,.01,0,.02,0-.01-.03-.02-.05-.02-.08-.03,0-.05-.02-.08-.02,0,0,0,0-.02.01h-.03s0-.03-.02-.05c0,0,0,0,0-.02,0-.03-.02-.04-.04-.07-.04-.05-.07-.09-.1-.15-.01-.02,0-.04-.03-.05-.02,0-.03,0-.05,0-.05,0-.05-.07-.1-.07-.01,0-.02,0-.03,0-.02,0-.03,0-.06,0h-.03s-.05,0-.08-.02c-.02,0-.02-.02-.04-.03h0s-.02-.06-.05-.1c-.03-.03-.06-.02-.1-.03,0,0,0,0-.01,0-.04-.01-.06-.05-.1-.05-.01,0-.02.01-.03.02-.03.02-.04.02-.07.03h0s-.04.02-.06.02c0,.02,0,.03-.02.04,0,.02.01.03.03.05.02.02.05.03.05.05v.05s-.01.04-.03.06c0,.02,0,.03-.02.04-.02,0-.03,0-.05,0-.01,0,0,.02-.01.03,0,.02,0,.02-.01.04h-.01s-.03-.02-.05-.03h0s.02.03.03.04c.01.02,0,.03.01.05.01.02.02.03.05.05.02,0,.04.01.04.03v.07s-.02.06-.05.06-.03-.04-.05-.06c-.03-.02-.05-.02-.07-.05-.02-.03-.04-.03-.05-.06,0-.03,0-.07-.02-.07s-.05-.01-.08,0c-.03.01-.03.05-.03.08,0,0-.01,0-.02,0-.01,0,0-.03-.02-.03-.05-.01-.08-.04-.08-.09,0-.01.02-.02.02-.03,0-.01,0-.02,0-.03h.01s.03.02.05.02c.02,0,.03,0,.05,0-.03-.06-.09-.09-.09-.16-.02,0-.03.02-.05.03-.02.01-.04.01-.04.03s0,.03,0,.05c0,.02-.03.02-.03.04,0,.01,0,.02,0,.03,0,.03-.03.04-.04.08,0,.03,0,.05-.01.07-.01.01-.03.01-.04.01s-.02-.02-.03-.04c-.02-.03-.03-.06-.07-.08-.02.03-.02.05-.04.07,0,.01.01.02.03.03-.03.01-.04.02-.07.03.02.03.04.04.07.07.02-.01.02-.03.03-.05.03.01.03.04.05.05.02.01.04.02.06.04-.04.03-.08.04-.13.07-.02,0-.03,0-.04.02-.02.02,0,.04-.02.06,0,.01-.02,0-.03,0-.03,0-.04-.04-.05-.07,0-.03,0-.04-.01-.07v-.09s.01-.04.01-.04c0-.01,0-.02,0-.03,0,0,0,0-.02,0,0,0-.01,0-.02,0h0c0-.11.03-.16.05-.26,0-.03.04-.03.04-.06,0-.02-.02-.02-.04-.02-.03,0-.04-.02-.06-.04-.04-.02-.06-.07-.11-.07-.03,0-.05.02-.08.04-.03.02-.06.03-.09.03-.03,0-.04.04-.05.07-.01.03-.03.03-.05.06-.01.02-.01.04-.03.04,0,0,0,0-.01,0v.06s.04,0,.06,0c0,.03-.03.04-.04.06,0,.01,0,.03-.02.04-.02,0-.03,0-.05,0-.03.01-.05.03-.06.05,0,0,0,.02,0,.03,0,.03.03.04.03.07s-.02.04-.03.07c-.02.04-.04.06-.08.07-.02,0-.01.03-.02.06-.01.04-.02.06-.02.1,0,.05,0,.08-.03.12-.01.01-.03.01-.04.03-.04.05-.02.1-.05.16.03-.03.06-.04.11-.04,0,0,0,0,.02,0v.03s-.02.03-.03.04c-.03.02-.05.02-.08.03-.05.01-.07.03-.12.03-.06,0-.08-.03-.14-.05-.04-.01-.08,0-.1-.03-.02-.03-.02-.05-.02-.08-.02-.06-.02-.09-.02-.15,0-.02,0-.04.01-.05,0-.02.02-.04.03-.06.01-.03.04-.04.07-.06.05-.02.07-.04.12-.04,0-.02,0-.03,0-.05,0-.03-.05-.02-.05-.05,0-.04.03-.05.03-.09,0-.05,0-.09.03-.14v-.02s.03-.02.05-.04c.01-.01.03-.02.03-.04,0-.02-.04-.01-.04-.04,0-.04.04-.05.04-.09,0-.02-.02-.03-.03-.05,0-.02-.01-.04-.04-.05l.1-.18h0s.07-.04.09-.09c0,0,.01-.01.01-.02,0,0,0,0,0-.02h-.01c.03-.05.06-.07.11-.1.05-.03.09-.04.15-.05.04,0,.05-.04.08-.04.02,0,.02.02.03.02.03,0,.04-.02.06-.02.06-.01.1-.04.14-.09,0,0,.01-.02.02-.03h0s.03.07.07.07c.03,0,.04-.02.07-.02h.05s.05-.04.09-.04h.04s.04-.03.07-.04c.03-.02.06-.04.06-.07,0-.05-.05-.06-.08-.1.03-.01.07-.02.07-.06v-.04s-.01-.02-.01-.04.02-.02.02-.03c.02-.02.03-.03.03-.06,0-.04.02-.07.06-.07h.04s.08,0,.12-.02c.01,0,0-.02.02-.02.05,0,.08.05.13.05.02,0,.02-.02.03-.03.04-.06.03-.15.1-.15.01,0,.02,0,.03,0,.02,0,.02-.02.02-.04,0-.04-.03-.05-.05-.09.03,0,.05,0,.07.01.03.01.03.03.06.03.01,0,.02,0,.02-.02.02.03.03.08.07.08.01,0,.02,0,.03,0v.05s0-.05.04-.05c0-.01-.01-.02-.02-.03h.01s.03,0,.05.01c-.02.02.03.03.04.03,0,0,.01,0,.02,0,.03,0,.04.02.07.05.02.02.03.04.05.06.04.03.04.06.06.1.03.06.04.1.05.17,0,.02.02.04.02.06,0,.01-.01.02-.01.03,0,.06.03.09.03.15,0,.05-.05.06-.08.1-.04.05-.06.08-.1.13-.02.03-.04.05-.04.08,0,0,0,0,0,.02.02-.02.03-.03.03-.06.04-.04.07-.05.1-.09.04-.04.06-.07.11-.08.03,0,.04-.04.07-.06.03-.02.06,0,.09-.02.02-.01.03-.03.06-.03.05,0,.08.02.14.02.07,0,.11-.04.13-.1,0-.01.02-.01.02-.03,0,0,0-.01,0-.02,0-.01-.02-.02-.02-.04,0-.07.06-.09.06-.16,0-.01,0-.02,0-.03,0-.07.06-.09.11-.14.05-.04.08-.06.14-.08.01,0,0,.03.01.04.02.03.05.02.08.04.03.03.05.07.09.07.02,0,.03,0,.04,0,.03,0,.05.03.05.06.02,0,.04,0,.06,0,.03,0,.05-.03.05-.06,0-.02-.01-.03-.01-.05,0-.03.04-.03.04-.06,0-.03,0-.05,0-.07-.01-.02-.03-.02-.03-.04,0-.02,0-.03,0-.04.01-.02.04-.01.04-.04,0-.02-.02-.03-.02-.06,0-.03.04-.05.04-.08,0-.07-.03-.1-.03-.17v-.04s.03-.04.06-.04c.03,0,.05-.02.09-.02.02,0,.03.03.04.04.05.03.07.05.12.07.04.02.06.05.08.09.02.02.02.06.04.06s.05,0,.07-.02c.01-.01.03-.02.04-.02h0s0-.02,0-.02c0-.04.02-.06.02-.11,0-.03-.02-.05-.02-.08,0-.05.01-.09.05-.11,0,.02.02.03.03.05,0,0,0,0,0,0,.01.02.01.05.03.06.09.04.14.04.24.04.02,0,.04-.02.06-.03.05-.02.09-.06.09-.11s-.02-.08-.02-.14c0,0,.01,0,.01-.02,0-.04-.02-.05-.03-.09-.01-.03,0-.06-.01-.09-.01-.03-.03-.06-.05-.09s-.03-.05-.03-.09c0,0,0-.01,0-.02,0,0,0,0,0-.02,0-.04-.03-.06-.04-.11-.02-.08-.04-.13-.04-.22v-.07s.06-.05.07-.09v-.02s0,0,0,0c.01,0,.02.02.03.02.01,0,.03,0,.04,0,.01.02.02.04.04.04.01,0,.01-.02.02-.02.03,0,.05.03.08.03.02,0,.04-.02.05-.04,0,.02.03.02.03.05,0,.01-.01.02-.01.03,0,.02.02.03.02.06,0,.01,0,.04-.01.04-.01,0-.02-.01-.03-.01h-.04c0,.08.08.1.14.12.04,0,.05.04.09.04.06.01.1,0,.14.04.01.01,0,.03.01.04.01.02.04,0,.06.02,0,0,0,0,.01.02,0,0,0,.01.01.01.01,0,.01-.01.02-.02,0,.02,0,.03,0,.05,0,.01-.02,0-.04.02.01,0,.02.02.02.03,0,0,0,0,0,.02,0,.02.03.02.04.04.02-.03.03-.05.05-.07h.02s0,0,0,.01c0,.04-.06.04-.06.07s.02.05.04.08c.02.04.03.09.08.09.06,0,.08-.04.12-.08.01-.01.02-.03.03-.03.02,0,.03,0,.05.01-.01.02-.01.04-.01.06,0,0,0,.01-.01.02,0,.01,0,.02,0,.03,0,.07-.04.1-.04.17,0,.02,0,.03.01.04.01,0,.02,0,.04,0,.02.07.06.09.11.14.02.02.06.02.06.05,0,.02-.02.02-.03.03.03,0,.06.02.06.05,0,0,0,.01,0,.02v.05s-.03.04-.05.05c0,.01,0,.02.02.03-.01,0-.02,0-.03,0,0,0,0,0-.02,0-.01.03-.03.04-.06.06-.01,0-.03.01-.03.03,0,.01.02,0,.02.02,0,.02-.03.02-.04.02-.02,0-.04,0-.06.02-.03.02-.05.02-.07.04,0,0,0,.02-.02.03.02.03.04.05.06.08,0,.02.01.04.03.04.03,0,.04-.04.07-.04.06,0,.09.04.15.04.03,0,.04-.02.07-.02,0,0,0,0,0,0,0,0,0,0,0,.01,0,.01.02.01.02.02.02.02.02.04.02.06,0,.02-.01.03-.01.06s0,.03,0,.06h0s-.02,0-.03,0c-.02,0-.02.02-.02.03,0,.04.03.06.03.1,0,0,0,0,0,0,0,0,.01,0,.02,0,0,0,0,0,0,0,0,.05-.05.07-.09.09,0,.01,0,.02.01.04,0,.02,0,.04.02.04.06,0,.07-.09.12-.09.01,0,.02,0,.03,0,0,0,0,0,0,0,0,.03-.02.04-.02.07v.06c0,.07-.04.11-.04.19,0,0,0,.01,0,.02.01,0,.02,0,.04.01-.02.04-.04.04-.08.06-.01,0-.02,0-.03.01,0,0,0,0,0,0,0,.02,0,.03,0,.06,0,.02.03.02.03.04,0,.01-.02.02-.02.03,0,.02,0,.03.02.04h.02s.01.02.02.02c.02,0,.03,0,.05,0,.03.03.03.07.07.09.04.02.06.01.1.03,0,.03-.02.04-.02.07,0,.04,0,.06.02.1h-.02v.02s.01.02.02.02c0,.05.02.07.03.12,0,.03,0,.04,0,.07-.01,0-.02,0-.04,0-.02,0-.04,0-.04.03,0,.02.03.02.04.04-.01.02-.03.03-.03.05,0,.01.02.01.02.02,0,.02-.02.02-.02.03,0,.02.02.04.04.04,0,0,.01,0,.02,0,0,0,0,0,0,0Z"/>
    <path class="cls-2" d="m24.72,34.88s-.02.02-.04.02v-.03s.04-.01.04,0Z"/>
    <path class="cls-2" d="m25,34.81s0,.02,0,.03c0,.02,0,.03,0,.05,0,.02-.01.02-.02.03-.01.01-.02.02-.03.02-.03,0-.05-.02-.05-.05,0-.03,0-.04.01-.07-.04.01-.06.03-.09.03-.01,0-.02-.02-.02-.03,0-.02.03-.01.05-.03,0,0,0-.02,0-.03,0-.01.03,0,.04,0,.04,0,.06-.01.09-.02,0,.02.01.03.01.05Z"/>
    <path class="cls-2" d="m27.39,31.77s.02.02.03.03h0s-.04,0-.06-.01c0-.02,0-.04.02-.04,0,0,.01.01.02.02Z"/>
    <path class="cls-2" d="m27.49,28.49s.02.03.04.04c0,.02,0,.03-.02.04-.03-.06-.09-.06-.15-.1-.04-.03-.07-.04-.1-.08-.01-.02,0-.05-.02-.06,0-.02.01-.04.03-.04.02,0,.03,0,.05.02.05.02.06.07.11.07,0,0,0,0,0,0,.01,0,.01.02.03.02.04.02.04.05.06.08h0s-.02,0-.02.02Z"/>
    <path class="cls-2" d="m27.47,30.61s0,.02,0,.03c.01-.02,0-.06.03-.06,0,0,.01,0,.02,0,0,0,.01,0,.02,0,.02.02.01.05.04.08.01.01.02,0,.04.02.02.01.02.04.03.06.02.02.03.03.04.06-.05,0-.08.05-.1.1-.02.07-.07.09-.1.15-.02-.01-.02-.03-.03-.06-.02-.04-.02-.06-.02-.1,0,0,0-.01.01-.02-.03-.05-.04-.09-.05-.15,0-.02-.03-.03-.03-.05,0-.03,0-.06-.03-.07-.01,0-.03,0-.03-.02,0-.02,0-.04.01-.06h0s.06.04.11.04c.01,0,.02,0,.02-.01.02.02.02.03.02.06Z"/>
    <path class="cls-2" d="m27.39,32.39s0,.03,0,.06-.03.02-.04.04c-.02.02-.03.04-.05.06-.03.02-.04.03-.06.05-.01.01-.01.04-.03.04,0,0-.01,0-.02,0-.02,0-.03,0-.06,0-.02,0-.03,0-.05,0-.02,0-.03,0-.04.02-.03.02-.05.02-.07.03-.02,0-.02.02-.03.03-.05.03-.07.06-.09.12,0,.02-.02.03-.02.05,0,0,0,0,0,0,0,.01-.02,0-.02.02,0,.03.01.04.01.07,0,.04-.03.05-.06.07-.05.03-.08.03-.14.04-.07.01-.1.03-.16.05-.02,0-.03.02-.05.02-.02,0-.02-.02-.04-.02s-.02.02-.03.03c-.04.02-.07.04-.11.04v.06s.01.02.01.03c0,.03.01.04.02.07,0,.02,0,.04,0,.06,0,.01,0,.03-.01.03-.04,0-.05-.06-.09-.06-.01,0-.02.01-.02.02,0,.02.02.03.03.04.02.01.03.03.06.04,0,.02-.01.03-.02.05-.02.04-.05.07-.08.11-.04.05-.06.09-.06.16,0,0,0,.01,0,.02-.02,0-.02-.02-.04-.02-.02,0-.02.03-.04.05,0,.03-.08.04-.06.06.02.02-.07.05-.11.04-.04.02-.08.03-.1.07-.02.03-.03.05-.04.08-.03.05-.06.11-.07.12-.02,0-.04,0-.05.02-.02.03-.03.04-.05.06-.01.01-.02.03-.04.03-.02,0-.02,0-.04,0-.05,0-.06.05-.11.05-.02,0-.02-.02-.03-.02-.04,0-.01.06-.04.1-.03.04-.05.06-.07.11h-.04s-.03,0-.03,0c-.07,0-.1.04-.15.08-.02.02-.04.03-.06.05,0,.01,0,.02-.02.03-.02.01-.03,0-.05.02-.02,0-.02.02-.03.03,0-.01,0-.02,0-.03,0-.08.02-.12.04-.2.01-.05.03-.08.06-.13.02-.03.02-.06.05-.07.04-.02.03-.06.07-.08.02-.01.04,0,.06-.02.01,0,.01-.02.02-.04.01-.04.03-.07.06-.1.03-.03.07-.04.07-.04.04,0,.03-.06.05-.09,0-.02.03-.02.05-.04.03-.03.05-.04.08-.06.02-.02.04-.03.05-.05,0,0,0-.03.02-.03,0,0,.01,0,.02,0,0,0,0,0,.01,0,.02,0,.04,0,.06,0,.03,0,.06-.03.04-.06-.02-.03-.01-.07.02-.08.03,0,.03-.13.08-.12h0s.02.01.03.01c.02,0,.02-.02.03-.03.02-.02.04-.04.06-.06.02-.03.06-.03.08-.06.02-.02.02-.03.03-.05,0-.01.02-.01.04-.02.03-.04.06-.05.09-.1-.01,0-.02,0-.03,0,.02-.02.05-.04.05-.07,0-.02-.01-.03-.01-.04,0-.01.02,0,.03-.02.02-.01.04-.02.05-.05.03-.04.05-.06.06-.11.03.04.02.08.04.12.02-.02.03-.04.03-.07,0-.02-.01-.03-.01-.05v-.03s0-.02-.01-.03c.02,0,.04,0,.06-.02,0,0,.01-.02.02-.02.01,0,.02.01.03.01.04,0,.06-.03.06-.07,0-.02-.01-.02-.01-.04s.03,0,.04-.01c.03,0,.05-.03.05-.05,0-.01-.02-.01-.03-.01,0,0,0-.01,0-.02,0,0,0-.01,0-.02,0-.03.03-.04.06-.04.01,0,.02.02.03.02.04,0,.01-.07.04-.1,0,0,.02,0,.03-.01.02.04.02.07.03.11.04-.01.07-.03.09-.07,0-.01,0-.03.02-.03.02-.01.06,0,.06-.04,0-.02-.01-.03-.02-.05.01,0,.02.01.03.01.04,0,.04-.05.05-.09.01-.05.02-.07.02-.12,0,0,0,0,0,.01,0-.01,0-.02,0-.03,0-.03-.03-.06-.06-.06-.01,0-.02,0-.03,0-.02-.02,0-.04-.01-.06-.01-.02-.04,0-.04-.03,0-.03.03-.03.03-.06,0-.02-.03-.02-.05-.04,0-.02.03-.02.05-.02.01,0,.02.01.03.01,0,0,.01,0,.01,0,0-.02-.03-.02-.03-.05,0-.06.07-.07.09-.12v-.04s.03.07.07.07c.01,0,.02,0,.02-.02,0-.01,0-.02,0-.03h0s0,0,0,0h0s0-.02,0-.03c0,0,0,0,0-.01,0-.02-.02-.02-.02-.03-.01-.03-.02-.05-.03-.08,0-.01-.02-.02-.02-.03,0,0,0,0,0,0,.02.01.02.04.05.04.01,0,0-.01,0-.03,0-.02,0-.02,0-.04,0-.03,0-.05.02-.08,0-.01,0-.03.01-.04.01,0,.03,0,.04-.01.02-.03,0-.06.01-.08.01,0,.02,0,.04,0v.13s.02,0,.02,0c.02,0,.02-.01.04-.01l.02.07s-.03.07-.03.12h0s.02,0,.03,0,.02-.01.03-.02c.02,0,.04.01.04.03,0,.01-.01.01-.02.02-.02.01-.03.02-.05.02-.02,0-.02-.03-.04-.03s-.03.01-.04.03c.03.02.02.07.06.07.03,0,.04-.03.07-.03,0,.02,0,.03,0,.05,0,.02.02.03.02.06v.02s0,0-.01,0c-.02,0-.03-.01-.04-.01-.02,0-.03.02-.05.02-.01,0-.02,0-.03,0-.02,0-.04,0-.04.02,0,.02.02.03.02.06,0,.03-.03.04-.03.07,0,.02.03.02.03.03v.04h.01s.05,0,.08-.01h0v.06s.01.05.01.08h.02s0,0,0,0c0,.02-.02.03-.02.05h0s0,0,0,0c.02,0,.02-.03.04-.04,0,.01.02.02.02.03,0,0,0,0,0,0,0,.01-.01.02-.01.04,0,0,.01.01.02.02.01.02,0,.04,0,.06,0,.02.03.03.06.02Z"/>
    <path class="cls-2" d="m27.41,31.28s.07-.01.12-.02h.02s0,0,0,0c0-.02,0-.03,0-.05,0,0,0,0,0,0,.02.02.06,0,.06.03,0,.04-.03.06-.04.09,0,.02,0,.04-.02.05,0-.03,0-.06-.03-.06-.02,0-.02.02-.04.03-.01-.03-.04-.03-.06-.06Z"/>
    <path class="cls-2" d="m24.68,35.21s0,.05,0,.07c0,.06-.03.12-.09.12-.02,0-.02-.02-.04-.03-.03-.04-.03-.1-.09-.11,0,0,0-.01,0-.02,0-.01-.01-.01-.01-.02h0s0-.01.01-.01c.01,0,.02.01.03.01.01,0,.02-.02.02-.03v-.04s0-.03-.02-.04c.02-.02.03-.03.06-.05h0s.02-.04.04-.06c0,0,.01-.02.02-.02.02,0,.02.02.02.04v.02s.02.02.04.02h0s-.02.02-.02.03c0,.02,0,.02,0,.04,0,0-.01.01-.01.02,0,.02.01.03.02.05Z"/>
    <path class="cls-2" d="m24.82,34.97s0,0,0,.01c0,0-.01,0-.02,0,0,0-.01,0-.02,0,0,0,0,0-.01,0,0,0-.01,0-.01-.02,0-.02.06-.02.06,0Z"/>
    <path class="cls-2" d="m27.37,31.44h0s0,.05-.03.06c0-.01-.01-.02-.01-.03,0-.02.02-.02.03-.03Z"/>
    <path class="cls-2" d="m27.76,32.39s-.02.02-.04.04c-.02.02-.04.04-.07.06-.05.03-.07.06-.13.06-.02,0-.04,0-.05-.02-.02-.03,0-.05,0-.09,0-.02-.01-.02-.01-.04,0,0,0-.01,0-.01.02,0,.02.02.04.02.03,0,.03-.03.04-.05,0-.03.01-.05.02-.08.02.01.03.05.06.05.04,0,.07,0,.1,0,.01,0,.02.02.02.03,0,.01.02.01.02.02Z"/>
    <path class="cls-2" d="m27.71,28.64c-.06-.02-.09-.05-.15-.06,0,0,0-.01,0-.01.03,0,.04.02.07.02.02,0,.04,0,.06.01.01,0,.01.02.01.04Z"/>
    <path class="cls-2" d="m27.8,30.85v.02s-.04,0-.07.02c0-.01-.02-.02-.02-.04,0-.03.04-.01.06-.02h.01s.02,0,.02.02Z"/>
    <path class="cls-2" d="m27.99,30.42s.02.03.02.06c0,.05-.05.06-.09.08-.03.02-.03.05-.03.08v.05s0,.02,0,.03c0,0,0,.01,0,.02-.02-.02-.02-.04-.04-.06-.01-.02-.03-.02-.04-.04-.01-.03,0-.08-.05-.08-.01,0-.02,0-.04,0-.02,0-.03-.01-.04-.01-.01,0-.02.02-.03.02-.03,0-.03-.04-.06-.04h-.04s-.06-.02-.08-.06c-.03-.04-.04-.06-.05-.11,0-.04-.01-.09-.05-.09-.03,0,0,.05-.03.08,0,0,0,0,0,0,0-.03-.01-.05-.01-.09,0-.02.02-.02.02-.04,0,0,0-.01,0-.02,0-.02.02-.03.02-.05,0-.02,0-.03,0-.05,0-.02.02-.05.04-.05,0,0,0,0,.01,0h-.02s.03,0,.05.01c.03.01.02.06.04.08.03.03.07.01.1.04.01,0,.01.03.03.04,0,0,.02,0,.03.01,0,.01,0,.03.02.04.02,0,.03,0,.05.02.03.02.04.06.07.06,0,0,.01,0,.01-.01,0-.02-.01-.03-.02-.05h0s.02,0,.03,0c.02,0,.02-.03.02-.05,0-.01,0-.02,0-.03.01,0,.01.02.03.03.02.01.04.02.04.04,0,0,0,.01,0,.02,0,.04.05.03.08.04.02.01.02.03.03.05Z"/>
    <path class="cls-2" d="m28.48,40.1s0,.02,0,.03c0,.01,0,.02,0,.03,0,.02-.02.03-.04.04-.02,0-.02.03-.04.03-.01,0-.01,0-.02-.01.02-.03.04-.04.06-.07.02-.02.01-.07.04-.06,0,0,0,.01,0,.02Z"/>
    <path class="cls-2" d="m28.29,28.57s.06.03.1.03c0,0,.01,0,.02,0,.01,0,.02.02.02.03,0,0-.01.01-.02.01-.06,0-.1-.02-.12-.08Z"/>
    <path class="cls-2" d="m28.75,20.86s.02-.07.03-.12c0,0,0-.02,0-.02.01-.01.02.02.02.04,0,.02.01.04.02.06v.04s.01.03.01.06c0,.01,0,.02-.01.03,0-.02-.01-.03-.03-.04-.02-.01-.04-.02-.04-.04Z"/>
    <path class="cls-2" d="m28.22,29.86v-.06s-.01-.02-.02-.03c.02,0,.02-.03.02-.04,0-.03-.02-.05-.02-.08-.02-.09-.03-.15-.07-.23-.02-.04-.04-.07-.06-.1-.01-.02,0-.03-.02-.05-.02-.02-.04,0-.07-.02-.03-.02-.05-.04-.08-.04-.01,0-.01,0-.02.02,0-.02,0-.04-.01-.06-.02-.02-.05-.03-.05-.06v-.02s-.02-.04-.02-.08c0-.01,0-.02,0-.03,0-.02-.02-.04-.04-.04-.03,0-.05,0-.07.03-.01.01,0,.03-.01.05-.03-.02-.05-.03-.07-.06,0-.02-.03-.01-.03-.03,0-.01.01-.02.02-.03.01-.03.02-.04.04-.06.03-.02.05-.04.09-.04.07,0,.1.04.17.04h.08s.04.02.07.02c.02,0,.02-.01.04-.01.05,0,.07.04.13.04s.07-.04.12-.04c0,0,0,0,.02,0,.01-.02.03-.02.04-.02,0,0,.02,0,.03,0,.03,0,.04-.03.07-.03.02,0,.03,0,.04.02-.01,0-.03,0-.03.02,0,.04.04.05.07.08.03.03.05.06.09.06.01,0,.01-.02.03-.02.03,0,.04,0,.06,0,.03,0,.05-.02.08-.02.04,0,.03.04.06.07.02.02.05.02.08.04.05.04.07.09.09.15h0s.05,0,.05,0c.03,0,.05.02.05.05v.05s0,.01,0,.02c0,.02.01.04.03.04.02,0,.03-.02.05-.02.04,0,.08.03.08.07s-.05.04-.08.07c-.02.02-.02.05-.02.08,0,.03.02.04.02.06,0,.03-.02.05-.02.09,0,.02,0,.03,0,.05,0,.04,0,.06,0,.1,0,.05.05.06.07.11.01.04.01.07.01.11,0,.02-.02.03-.04.05-.01.02,0,.04-.02.05-.03.03-.05.04-.09.04,0,.02,0,.04,0,.06,0,0-.02.01-.02.02,0,.01-.02.01-.02.02-.01.02,0,.03,0,.06,0,.02,0,.03.02.04.01,0,.03,0,.04.02,0,.02-.02.03-.04.03,0,0,0,0-.02,0-.02,0-.03,0-.03.02,0,.02.02.03.02.04,0,.01-.02.01-.02.02-.01.01,0,.03,0,.05-.01-.04-.01-.09-.05-.09-.03,0-.03.03-.06.04-.05.03-.08.05-.09.11-.02,0-.03-.02-.05-.03-.01,0-.03-.02-.05-.02-.02,0-.03.01-.05.02-.01,0-.03,0-.03.01,0,.03.03.04.03.06,0,0,0,.01,0,.02-.03-.01-.04-.01-.06-.03-.01-.02,0-.03-.01-.05-.03.01-.05.02-.09.04,0-.02,0-.04,0-.06,0,0,0,0,0,0,0,0,.01,0,.02.02,0-.03,0-.05.02-.08.02-.03.05-.02.09-.03-.02-.05-.06-.05-.1-.08-.02-.01-.02-.03-.03-.05-.02-.02-.04-.03-.06-.03,0-.05-.01-.08-.04-.12,0-.01-.02-.02-.03-.04,0,0,0-.01,0-.02,0-.01.01-.01.02-.02-.01-.05-.02-.08-.04-.12-.01-.03-.04-.04-.06-.06-.01-.02,0-.05-.03-.05-.02,0-.02.01-.04.01-.04,0-.04-.05-.04-.09Z"/>
    <path class="cls-2" d="m28.89,39.8s0,0,0,0c0,0,0,0-.01,0-.01,0-.02-.01-.02-.03,0,0,0-.01.01-.02,0,.01.02.02.02.03Z"/>
    <path class="cls-2" d="m28.64,40.08s0,0,.01,0c-.02.02-.03.02-.05.02,0,0-.01,0-.02,0,0,0-.02,0-.02-.01,0-.02.03,0,.04,0,.02,0,.02-.01.04-.01Z"/>
    <path class="cls-2" d="m28.64,28.79s-.04-.03-.06-.05h0s.05-.03.06,0c.01.01.01.03.02.05-.01,0-.02,0-.03.02Z"/>
    <path class="cls-2" d="m28.95,39.95s-.02.01-.04.02c0-.01,0-.02,0-.04.02,0,.04,0,.05.02Z"/>
    <path class="cls-2" d="m28.88,39.97s0,0,0,0h-.03s-.02-.02-.04-.03c-.03.03-.03.05-.06.07-.01.01-.02.03-.04.03h-.01s.02-.04.02-.06c0-.02-.02-.02-.03-.03,0,0-.01-.02-.02-.02v.02s0,.02,0,.04h-.04l-.06-.05h0s-.02.05-.05.05c-.01,0-.02,0-.03-.01,0,.02-.03.03-.03.05,0,.01.01.01.02.02,0,0,0,0,0,0-.02,0-.03,0-.06,0-.02,0-.02-.02-.03-.02-.03,0-.04.02-.07.03-.03.01-.06.02-.08.05h0s-.01-.03-.01-.05c0-.02.01-.02.02-.03.01-.02.02-.03.04-.05.01,0,.02,0,.04,0,.02,0,.03-.02.05-.03.02-.01.05-.02.05-.04,0,0,0,0,0-.01h0s.02,0,.03,0c.03,0,.04-.02.07-.04.03-.02.05-.03.08-.05.02-.01.03-.03.05-.03.01,0,.01.01.02.02,0,.01.03.01.03.03,0,.01,0,.02,0,.03,0,0,0,0,0,0h.01s.02,0,.04,0,.02,0,.04-.02c0,0,0,0,0,0,0,.01,0,.02,0,.03,0,.01,0,.03,0,.03,0,0,0,0,.02,0,0,0,.01,0,.02,0,.01,0,.03,0,.04,0,.01,0,0,.02,0,.03Z"/>
    <path class="cls-2" d="m29.09,39.75s-.02.02-.03.02-.02,0-.04,0c-.04,0-.06.04-.1.04,0,0,0-.01-.01-.02,0-.02-.02-.03-.03-.04,0-.01,0-.02,0-.03.01-.01.02-.02.04-.02,0,0,.01,0,.02.01,0-.02.02-.03.05-.04,0,.01.02.02.02.03,0,0,0,.02.01.02,0,0,.01,0,.02,0,.02,0,.04.02.04.04Z"/>
    <path class="cls-2" d="m29.01,30.93s0-.04.01-.07c0,0,0,0-.02,0v-.02s0-.03,0-.05c0,0,0-.02,0-.02.04,0,.05.03.06.07,0,.03.03.04.03.07,0,.03-.02.06-.06.06-.03,0-.04-.03-.04-.05Z"/>
    <path class="cls-2" d="m29,39.56s.01-.05.03-.05c.01,0,.03.01.03.03,0,.04-.05.06-.09.06-.01,0-.03,0-.03-.01,0-.02.02-.03.04-.03,0,0,.01,0,.02,0Z"/>
    <path class="cls-2" d="m29.2,39.58s-.03.03-.05.03c0,0,0,0-.02,0-.02,0-.05,0-.05-.02,0-.03.02-.04.03-.06.02.01.04.02.06.04,0,0,.03,0,.03.02Z"/>
    <path class="cls-2" d="m28.87,21.08s0-.03,0-.04c.01,0,.01.02.03.03,0,0,0-.02,0-.03,0,0,.01.01.02.01.05,0,.08-.03.13-.04.05,0,.07.04.12.03-.02.05-.06.05-.11.06-.04,0-.06.01-.1.01-.04,0-.06-.02-.1-.02Z"/>
    <path class="cls-2" d="m29.1,31.18s0-.01,0-.02c0-.01,0-.02.02-.02.03,0,.05.01.08.02.02,0,.04,0,.04.03,0,0,0,0,0,0-.03,0-.05.01-.09.01-.01,0-.02,0-.03-.01,0,0-.02,0-.02-.01Z"/>
    <path class="cls-2" d="m29.01,20.63s.06-.02.08-.05c.04.01.07.03.12.03.01,0,.02-.02.02-.03.01.02.02.04.02.06,0,.01-.02.02-.02.03,0,.03.03.04.03.07,0,.02-.02.02-.03.03,0,0,0,.01-.01.01-.03,0-.05-.02-.08-.03-.03-.01-.05-.01-.08-.04-.02-.02-.01-.05-.03-.08,0-.01-.02-.01-.02-.02Z"/>
    <path class="cls-2" d="m29.52,29.65s-.01.02-.02.02c-.02,0-.04-.01-.04-.03,0-.01,0-.02,0-.03.01,0,.02,0,.03,0,.01,0,.02.03.02.04Z"/>
    <path class="cls-2" d="m30.09,39.08s.02,0,.03.01h0s-.08.04-.08.04c-.05-.01-.07-.03-.1-.06-.02-.02-.06-.03-.06-.06,0,0,0,0,0,0,.08.01.1.09.17.09.02,0,.02-.01.04-.01Z"/>
    <path class="cls-2" d="m29.86,30.87s0,.02-.01.02v.02s0,0,0,0c-.03,0-.06-.02-.06-.05,0-.02.04-.06.05-.04.01.02,0,.04.02.05Z"/>
    <path class="cls-2" d="m30.13,30.06l-.06.02s.03.04.03.07c0,.03-.02.05-.03.08-.02.03,0,.06,0,.09,0,.03-.02.05-.02.08,0,.01,0,.02,0,.04,0,.08-.08.12-.08.2,0,.03.02.05.03.08h-.04s.01.02.01.04c0,0,0,.01,0,.02,0,0-.02,0-.02-.02h0s.01.02.01.03c0,.01,0,.02,0,.03,0,0,0,0,0,0s0,0-.01,0c-.04-.05-.08-.08-.08-.14,0-.02.01-.03.02-.05,0,.02.01.03.02.06.02,0,.04-.02.04-.04v-.02s-.04,0-.06,0c-.02-.02-.02-.03-.03-.05-.01-.01-.03-.01-.03-.03,0-.02.01-.03.03-.04l-.02-.02s.01-.05.02-.08c.03,0,.04-.02.06-.05.03-.04.02-.07.02-.12,0-.03-.02-.04-.02-.06s.02-.03.04-.05c.01-.01.01-.03.02-.03.01,0,.03,0,.04,0,.02,0,.04-.01.05-.03,0,0,0-.02.02-.02,0,0,.01,0,.02,0,.02,0,.04.02.04.05Z"/>
    <path class="cls-2" d="m29.93,26.82s0,0,0,0l.03.08v.05c0,.06-.03.09-.08.13-.02.02-.04.05-.07.05-.02,0-.02-.03-.02-.05-.01-.03-.02-.05-.02-.09,0-.04.02-.06.02-.1,0-.03-.03-.04-.05-.06-.01-.02,0-.04-.01-.06-.01-.03,0-.05-.03-.08-.02-.02-.04-.01-.06-.02,0-.04,0-.07.02-.11.01-.02.03-.03.03-.05.02,0,.03.02.06.02.03,0,.04-.03.07-.04.02,0,.03.02.06.02.03,0,.04.03.06.04.03.02.06.04.06.07,0,.02-.02.02-.04.03,0,.01.01.02.02.03l-.02.05s.04,0,.05.02c0,0,0,.02.02.03.02.01.03.01.05.01.02,0,.03,0,.04,0,.01,0,.02,0,.03,0,0,0,.02,0,.02-.01v-.03h-.03s0,0-.01,0c-.02,0-.03-.02-.03-.04,0-.02.01-.04.02-.06.02,0,.04.01.05.03,0,.01,0,.02,0,.03.02.02.05.03.05.07,0,.02,0,.03-.01.05.02,0,.03-.02.06-.02.03,0,.04.03.04.06,0,.03-.02.04-.03.06,0,.02,0,.04-.03.04s-.01-.03-.03-.04c-.05-.03-.08-.05-.14-.07-.04-.02-.04-.05-.09-.06h-.03s-.01,0-.02,0Z"/>
    <path class="cls-2" d="m29.44,20.41s.04-.02.07-.03c.02,0,.03-.03.05-.02.01,0,0,.02,0,.04l-.04.1s-.03-.02-.04-.04c0-.01-.02-.02-.02-.03,0,0-.02-.01-.02-.03Z"/>
    <path class="cls-2" d="m29.32,31.01v.08s-.01.02-.03.02c-.02,0-.02-.02-.02-.04,0-.02,0-.03,0-.04,0-.01.01-.01.02-.02,0,0,.01-.03.02-.02.01,0,.02.02.01.03Z"/>
    <path class="cls-2" d="m29.52,39.25s-.02.03-.02.05c0,0,0,.01,0,.03,0,.02-.01.03-.02.04,0,0,0,.02-.02.02,0,0-.01,0-.02,0-.02,0-.03.01-.05.03,0,0,0,.02-.02.02-.02,0-.03-.02-.04-.04,0,0,0-.02,0-.03-.02-.02-.04-.01-.06-.01-.03,0-.04.05-.07.05-.03,0-.03-.04-.06-.04-.02,0-.02.01-.03.02-.02.01-.03.02-.06.02,0,0,0,0-.01-.01-.01-.01-.02-.02-.04-.02v-.02s0-.02.01-.03c0-.01,0-.03.02-.03.03-.02.06-.02.09-.04.01,0,.01-.02.03-.03.03,0,.06,0,.09,0,.02,0,.03.02.05.04,0,.02,0,.04.03.04.02,0,.03-.02.05-.02.03,0,.05,0,.08,0,.02,0,.04-.01.05-.04h.03Z"/>
    <path class="cls-2" d="m29.61,39.08s-.02.05-.05.06c0-.03,0-.06.02-.07.01,0,.03,0,.03.01Z"/>
    <path class="cls-2" d="m29.65,39.15s0,.02,0,.03c0,.02-.02.04-.05.04,0-.01,0-.02,0-.03,0-.02.03-.03.04-.04Z"/>
    <path class="cls-2" d="m29.58,20.84s.04.03.07.05c.02.01.04.01.04.03,0,.01-.01.02-.02.03,0,0,0,.02-.01.02,0,0,0,0-.01,0,0,0,0,0,0,0,0,0,0,.01,0,.02,0,.02-.02.01-.04.02-.02,0-.03.02-.05.03-.03.02-.03.06-.06.08-.02-.02-.03-.05-.04-.07.03-.01.06-.02.06-.05,0-.02-.01-.02-.03-.03,0-.02.02-.02.02-.04.01-.04.03-.09.07-.09Z"/>
    <path class="cls-2" d="m29.84,39.11s-.04,0-.05.02c-.01,0-.02.02-.03.02,0,0,0,0,0,0,0,0,0-.02,0-.03,0-.03.02-.05.02-.08.04,0,.06.03.07.06Z"/>
    <path class="cls-2" d="m29.34,39.44s0,.01,0,.02c0,0,0,0,0,0-.03,0-.04.02-.07.02-.02,0-.02-.02-.02-.03,0-.02,0-.03.02-.03.02,0,.02.01.04.01.01,0,.01-.01.02-.02,0,0,.01,0,.01.02,0,0,0,0,0,0Z"/>
    <path class="cls-2" d="m29.93,38.93s.02-.02.03-.04c.01,0,.02.02.02.03,0,.02.02.04.03.06-.01,0-.02,0-.04,0-.02,0-.03-.01-.04-.03,0,0-.02,0-.02-.02Z"/>
    <path class="cls-2" d="m30,29.68h0s-.02-.05-.04-.09c.02,0,.03,0,.05,0,.02,0,.02,0,.04,0,0,.04-.03.05-.05.09Z"/>
    <path class="cls-2" d="m29.65,29.05s.01-.03.01-.05c0-.04-.02-.05-.02-.09,0-.03.03-.04.05-.07.02-.04.01-.07.03-.11h0s.03.03.06.05c0,0,0-.01.01-.01h.04s.01,0,.02,0c.02,0,.02.02.04.03,0,0,0-.02.01-.02.03,0,.06.02.07.05.02-.02.04-.02.07-.03,0,0,.01-.02.02-.02,0,0,0,0,0,0v.02s-.05.03-.05.06c0,.03.05.03.05.06,0,0,0,.01,0,.02,0,.02.02.02.02.03,0,.05,0,.09-.05.11-.03.02-.04.03-.06.06,0,0-.02,0-.02.02,0,.02.01.03.01.04,0,.03-.01.05-.02.07-.04-.02-.07,0-.1-.04-.01-.02,0-.03-.02-.05-.01,0-.02,0-.04,0-.01,0-.02-.01-.03-.02-.02-.01-.04,0-.06-.02-.03-.03-.02-.07-.06-.08Z"/>
    <path class="cls-2" d="m29.93,29.83s.06-.03.09-.06h.01s-.02.03-.03.05c0,0,0,.02-.02.02-.02,0-.03,0-.05-.01Z"/>
    <path class="cls-2" d="m30.35,38.49s0,.02,0,.03c0,.04-.04.05-.08.05-.02,0-.04,0-.06-.01-.01.05-.03.08-.03.14,0,.02,0,.04.02.06h-.05s-.03.02-.05.02c-.09,0-.14.04-.22.04-.05,0-.05-.05-.09-.08-.01-.02-.02-.03-.03-.04-.01-.01-.03-.01-.03-.03,0-.01.01-.02.01-.03,0,0,0,0-.01-.02,0,0,.02,0,.02-.02,0-.04-.05-.06-.09-.06,0,0-.01,0-.02,0,.02-.05.01-.11.06-.11.03,0,.05.02.08.02,0,0,.01,0,.02,0,.02,0,.04-.03.07-.03,0-.02-.03-.03-.03-.06s.04-.02.06-.03c.02,0,.04,0,.07,0h.05s.02.04.04.04c.02,0,.03-.01.05-.01.02,0,.01.02.01.04,0,.02,0,.03,0,.04.02,0,.03,0,.05,0,.03,0,.04-.01.07-.01.02,0,.02.04.05.04h.08Z"/>
    <path class="cls-2" d="m30.35,30.18s0,0,0,.02c0,.01.02.02.02.03,0,.02-.01.05-.04.05-.04,0-.05-.04-.06-.08,0-.03-.02-.04-.02-.07,0-.01,0-.02.01-.03,0,0-.02,0-.02-.02,0,0,.01,0,.02,0,.02,0,.04,0,.05,0,.02.02.02.04.02.06,0,.02.02.02.02.04Z"/>
    <path class="cls-2" d="m30.5,27.01s-.02.02-.03.02c-.03.01-.04.02-.07.02-.03,0-.05,0-.08,0,.01-.02.01-.03.03-.04.03-.02.05,0,.08-.02.01,0,.02-.02.03-.02,0,0,0,0,.01.02,0,.01.02.02.02.03Z"/>
    <path class="cls-2" d="m29.56,28.19v-.03s0,0,0,0c-.02,0-.03,0-.04,0,0,0-.01,0-.02,0,0,0,0,.02,0,.03,0,.03,0,.05.02.07-.02,0-.03-.01-.05-.02-.07-.01-.12.03-.19.06-.05.02-.09.04-.11.07-.02.02-.03.05-.03.08,0,.02.01.03.02.05.01.03,0,.05.02.08-.02.01-.04.03-.06.03-.02,0-.02-.01-.04-.01-.05,0-.07.02-.1.05-.02.01-.02.04-.04.04h-.04s-.02-.02-.03-.02c-.02-.02-.04-.01-.07-.02-.02,0-.02-.02-.04-.02-.05,0-.08.04-.13.04-.01,0-.02,0-.03-.01,0,0-.02,0-.02,0,0-.02.02-.02.02-.04,0-.03,0-.04,0-.07,0-.03-.02-.04-.03-.07-.01-.02-.03-.04-.05-.04-.03,0-.04.02-.06.05-.01.02-.03.02-.04.04-.01.02-.01.05-.04.05-.01,0-.02-.01-.02-.02,0-.03.01-.06.04-.07.01,0,.02,0,.02-.02,0-.03-.03-.04-.03-.07,0-.01.01-.02.01-.03,0-.03,0-.05-.02-.08-.03-.03-.06-.03-.11-.03-.04,0-.07-.02-.11-.02-.03,0-.07.02-.07.05,0,.03.04.04.04.07v.02s-.04-.03-.07-.03h-.02s.03.05.03.09c0,.02,0,.03-.01.05-.03-.02-.03-.04-.05-.07-.01-.02-.03-.03-.03-.06,0-.01,0-.02,0-.03v-.06s.01-.05.01-.05c0-.01,0-.02-.01-.02h0s0,0,.01,0c0-.03,0-.05,0-.08,0-.02,0-.02,0-.04,0-.02,0-.03-.01-.04,0-.02,0-.04,0-.05-.02-.01-.03-.01-.05-.02,0,0,.03-.01.03-.02,0-.02-.02-.03-.02-.05,0-.03,0-.04.01-.06.02,0,.02,0,.04.02,0-.03,0-.05,0-.08.03,0,.05,0,.07,0,.07-.03.09-.07.14-.12.04-.04.07-.04.09-.09,0-.02.04,0,.05-.03.01-.03.01-.05.02-.08h0s0,.05.03.05c.01,0,.03,0,.04-.01.03-.02.04-.07.04-.11,0-.03,0-.07-.03-.07,0,0,0,0,0,0h0s.01-.01.01-.02c0-.05-.02-.07-.06-.1-.02-.02-.04-.03-.07-.05-.05-.04-.08-.04-.14-.05-.04,0-.06-.02-.1-.02-.03,0-.05.02-.08.02-.02,0-.03,0-.04-.02-.02-.02-.03-.04-.06-.04,0,0,0,0,0,0h0s0,.02,0,.03c0,.04,0,.06,0,.09v.02l.06.26s0,.06-.02.09c-.02.03-.05.03-.08.03-.02,0-.03,0-.04,0,0,0-.01,0-.02.02-.08-.04-.12-.06-.16-.14h0s0-.01,0-.02c0-.02.01-.02.01-.04,0-.02,0-.03,0-.05,0-.04-.05-.03-.1-.06-.02,0-.02-.03-.03-.04-.02-.02-.03-.03-.06-.04v-.05s0-.02,0-.04c0,0-.01,0-.01-.02,0-.02.02-.02.03-.03,0,0-.01,0-.01-.01,0-.02.02-.02.03-.02,0-.01-.02-.02-.02-.03,0,0,0,0,0-.01,0,0,0,0,0,0-.03,0-.04-.03-.07-.04,0,.01,0,.02,0,.04,0,0,0,.01,0,.02,0,.05,0,.1-.04.12-.02,0-.03,0-.05,0-.03,0-.06-.02-.06-.05-.04,0-.02-.06-.04-.1-.02-.04-.03-.07-.03-.11,0-.04.01-.06.01-.11,0-.02-.02-.03-.02-.05,0-.02,0-.03,0-.04,0-.07-.01-.12-.04-.19,0-.02-.03-.03-.03-.05,0-.01,0-.02,0-.03,0-.04-.03-.06-.05-.1-.03-.06-.06-.09-.09-.15,0,0,0,0-.01,0,0,0-.01,0-.02,0v-.02s.01-.02.03-.03c-.02-.02-.02-.05-.03-.07h0s.02.02.04.02c.03,0,.05-.01.05-.04,0-.02-.02-.03-.02-.05v-.03h-.01s-.01,0-.02,0c0,0,0,0,0,0,0-.03,0-.04,0-.06,0-.04.03-.06.03-.1,0-.02-.02-.03-.04-.04-.01,0-.01-.02-.02-.03,0,0-.02,0-.02-.02,0-.02.02-.03.04-.03,0,0,0,0,.01,0,0-.04-.01-.06-.03-.1,0,0,0,0,0,0,.01,0,.02,0,.02-.02,0-.05-.02-.07-.04-.12,0-.02-.03-.02-.03-.04,0,0,0,0,0,0h0s-.04-.01-.05-.02h0s-.04.05-.07.07c0-.02-.02-.02-.02-.04,0-.04.03-.07.03-.11,0-.02-.02-.03-.02-.05,0,0,0-.01,0-.02,0-.02,0-.04,0-.06,0,0,0,0,0-.01h0s0-.02,0-.03c0-.02-.02-.02-.02-.04,0-.03,0-.05.01-.07,0-.02.03-.03.03-.05,0-.03-.02-.04-.02-.07,0-.04.02-.06.05-.07.02,0,.03,0,.05,0,.02,0,.02-.03.04-.04.04-.01.06-.04.07-.08h0s.06.02.06.05c0,0,0,.01,0,.02,0,.01,0,.02,0,.03,0,.01,0,.02,0,.03,0-.01,0-.03.02-.04.02.02.02.06.05.06,0,0,0,0,.01,0,0,.01,0,.03-.01.04,0,0-.02.01-.02.03,0,.02.03.03.03.05,0,.03-.02.04-.02.06,0,.03.04.03.07.05.04.02.07.04.07.09,0,0,0,0,0,0,0,0,0,0,0,0,0,0-.01,0-.02,0,0,.02.02.02.02.04,0,0,0,.01,0,.02,0,.04.05.06.1.06,0,0,.01-.01.02-.01.01,0,.02.01.03.01.07,0,.11-.03.17-.06.07-.04.13-.08.13-.17,0,0,0,0,0-.01h0s0,0,0,0c0-.04-.02-.07-.05-.09h-.02s-.04-.07-.04-.12c0-.04-.02-.05-.02-.09,0-.01.02-.01.02-.03v-.05s-.04-.05-.04-.09c0-.02.02-.02.02-.04,0-.02-.01-.02-.01-.04,0-.03-.03-.04-.04-.07.03,0,.04-.03.05-.05.01-.02.03-.02.03-.04v-.07s0-.04,0-.04c0-.03-.02-.04-.02-.07,0-.02,0-.04.02-.06.01-.01.03,0,.05-.02.03-.02.04-.04.04-.07h0s0,0,0,0c0,0,0,0,0-.01,0,0,0,0,0,0,0-.02.02-.02.03-.04.02-.04.03-.06.03-.1s-.01-.07-.02-.11c0-.05,0-.08,0-.13,0-.02-.03-.03-.03-.06,0,0,0,0,0,0,0,0,.01,0,.02,0,0-.02,0-.03,0-.05,0-.02.01-.03.01-.04,0,0,0-.01,0-.02,0-.03,0-.04.02-.06.02,0,.03-.02.03-.05,0-.02,0-.04,0-.06,0-.02-.02-.03-.03-.05,0-.02,0-.04,0-.06-.01-.02-.03-.01-.05-.03-.04-.04-.07-.06-.07-.11,0-.04.03-.06.03-.11,0-.02-.01-.02-.01-.04,0,0,0,0,0,0,.01,0,.01.02.03.02.02,0,.02-.02.03-.03.02-.02.04-.03.04-.06,0-.01-.01-.02-.02-.02,0,0,0-.01,0-.02-.01-.02-.03-.02-.04-.04.04-.02.09-.01.09-.05,0-.05-.03-.07-.03-.12,0-.03.04-.03.06-.06.01-.02,0-.05.03-.06l-.02-.05s0-.02,0-.04c0-.01,0-.02,0-.03,0-.04.04-.04.05-.08.02-.04,0-.07.02-.11,0-.02.03-.02.03-.04.01-.03.01-.04.03-.07.02-.04.04-.06.04-.11,0-.05,0-.09-.02-.14,0-.02-.03-.03-.03-.05,0,0,0-.01,0-.02.04,0,.06-.03.08-.06.03.02.04.03.08.03.06,0,.15,0,.15-.07,0-.02,0-.03,0-.06s.02-.03.04-.03c.02,0,.03-.02.05-.03.01.03.03.05.05.08.02.03.04.06.07.06.01,0,.02,0,.03-.01,0,0,.01-.02.02-.03,0,0,.01-.01.02-.02.02-.02.04-.02.07-.02.02,0,.03,0,.04,0,.03,0,.04-.04.07-.04.06,0,.1,0,.14.04.07.05.08.12.17.14.09.02.13.06.21.1.04.02.07.03.1.06.09.05.16.06.26.1.1.04.15.09.26.09.08,0,.12-.04.17-.09.02-.02.04-.02.05-.05,0,0,0-.02,0-.02,0-.01.03-.01.03-.03,0-.05.03-.08.04-.13-.02,0-.04,0-.04-.02,0,0,0-.01,0-.02,0-.02,0-.03,0-.05,0-.01,0-.02,0-.03.02,0,.04,0,.06-.01,0,.02.01.03.01.05,0,.01-.02.01-.02.02v.02s.02,0,.02,0c0,0,0,.02.02.02.02,0,.03,0,.05,0,.03,0,.04.04.04.08,0,.04.04.08.08.07.02.05.05.08.05.13,0,.06-.01.1-.04.15-.01.02-.01.04-.03.06-.07.06-.15.08-.15.16,0,.04.02.06.02.1,0,.02-.02.02-.02.04,0,.01,0,.02,0,.03,0,0,0,.01,0,.02v.03s0,.04-.02.07c.01,0,.01.02.02.04-.01,0-.02.02-.02.03,0,0,0,0,0,.01,0,.02-.02.03-.02.05,0,.03.02.05.02.08,0,.02,0,.02.01.04v.02s0,.07,0,.11c0,.05.02.07.03.11,0,.07.03.1.06.16.01.02.03.03.03.06,0,.01,0,.02,0,.03h0s0,.01,0,.01c.01,0,.02-.02.02-.03,0,.02.02.05.05.05,0,0,0,0,.02,0,.01,0,.02,0,.03,0,.02,0,.03-.01.04-.03.02.02.04.01.05.03.02.02.02.04.03.06.01.03.02.05.03.08,0,0,0,0,0,0,0,0-.01,0-.02-.01,0,0,0,0,0,0,0,.01,0,.02,0,.03,0,.03-.02.04-.02.06v.04s.02.05.05.05c.04,0,.06-.02.09-.04,0,.02.01.03.01.05,0,.02-.01.03-.02.06,0,.02,0,.04,0,.06-.02.03-.05.05-.05.08,0,.01,0,.02,0,.03v.04s-.03.07-.04.12c-.03.08-.05.12-.09.19-.06.07-.08.13-.11.22,0,.03-.02.04-.04.06-.02.02-.04.04-.06.07-.02.03-.04.04-.04.07,0,.02.01.02.02.04.02-.01.02-.03.03-.04,0,0,0,0,0,0,0,.07-.07.1-.07.17,0,0,0,.02,0,.02.02,0,.02,0,.04-.01-.02.07-.07.09-.11.15-.04.05-.33.38-.15.12.02-.03.04-.04.06-.06.01-.02.01-.04.02-.07.01-.03.03-.03.05-.06h0s-.03-.02-.05-.02c-.01,0-.01.01-.02.02,0,0-.02,0-.02.02,0,.03.01.04.02.06,0,0-.01,0-.02,0-.02,0-.02.01-.04.01,0,0-.01,0-.02,0-.03,0-.04.04-.07.06-.04.02-.07.02-.12.02-.02,0-.02.02-.04.02,0,0,0,0,0,0-.01,0-.01.02-.03.02-.03.01-.07.02-.07.05-.01,0-.02-.02-.03-.02-.02,0-.03.02-.05.03-.02.01-.04.02-.06.04-.02,0-.03,0-.04.02,0,.02,0,.04,0,.06,0,0,0,0,0,0,0,0,0,0-.02,0-.02,0-.03.02-.03.04-.07,0-.09.08-.09.15,0,.05,0,.12.05.12.01,0,.02-.01.03-.02h.02s.02.03.02.05c0,.03-.03.04-.06.04v.02s.02.03.02.05c0,.03-.03.04-.05.07-.02.03-.03.04-.05.07,0,.01,0,.03-.02.04-.04.03-.07.06-.07.11v.05s-.06.04-.06.08h0s0-.02-.02-.02c-.03,0-.05.03-.05.06,0,.05.02.07.03.12.01.03,0,.05.02.08,0,0,.02,0,.02,0,.01,0,.03,0,.04,0,.04.03.03.07.04.11.02.07.04.12.07.18,0,.02.03.02.04.04,0,.03,0,.04.01.07,0,.02,0,.03.02.05,0,.01.03.01.03.03,0,0,0,.01,0,.02,0,.02.02.03.03.05.01.02.01.03.03.04.06.04.08.07.12.13,0,0,0,0-.01,0-.02,0-.03,0-.05,0-.01,0-.02.02-.03.02-.02.01-.04.01-.06.02,0,0,0,0,0,.02,0,.02-.02.03-.02.05s0,.03,0,.05c0,0,0,0,0,.02,0,.02.02.03.02.04,0,.04,0,.07.02.11.02.06.01.14.07.13.02.05.05.07.07.12,0,0,0,0-.02,0,.02.02.04.03.04.05,0,0,0,.01,0,.02,0,.04-.03.05-.03.09,0,.04.03.05.06.08.04.03.06.05.1.07.03.02.06.03.08.07.02.03.05.06.09.06.05,0,.06.03.11.05.09.03.14.05.24.05.01,0,.02,0,.03,0,0-.04-.08-.03-.08-.08,0,0,0,0,0,0v-.03s-.01,0-.02,0c-.04,0-.05-.02-.08-.05-.04-.03-.06-.05-.1-.09-.02-.01-.03,0-.05-.02-.03-.01-.03-.05-.06-.07-.02-.02-.05-.03-.05-.06,0-.02.01-.04.01-.06.03.01.04.03.06.06.04.04.07.05.11.09.03.02.05.04.08.05.02,0,.03.02.04.04.02.02.04.03.05.06,0,.02,0,.03.01.05.01.03.05.03.09.03,0,0,0,0,0,0,.02,0,.04-.02.04-.04,0-.04-.04-.04-.07-.07-.02-.02-.03-.03-.06-.05-.02-.01-.02-.03-.03-.05-.02-.02-.04-.04-.04-.08,0-.02.04-.02.04-.05,0-.02.02-.02.04-.02h.03s0,0,0-.01c0,0,0,0,0,0v-.02s.03,0,.04-.02c.01.04,0,.06,0,.1v.07s.03,0,.04,0h0s.02,0,.02-.02v-.02s.02-.06.04-.09c.02-.03.01-.06.04-.08.04-.04.07-.05.11-.08,0,0,.01,0,.02,0,.02,0,.03-.02.06-.02.06,0,.08.04.14.04.04,0,.05-.03.09-.03.02,0,.03,0,.04,0,0,.02,0,.04.02.04s.03,0,.03-.02c.03,0,.05.01.06.03v.02s0,.02,0,.02c.02,0,.03.01.05.02,0,0,0-.01,0-.02,0,0,0,0,0,0,.04,0,.06.04.08.07.01.02.04.01.05.03v.02s.02.04.03.06c0,.01.03,0,.04.02,0,0,0,.02.02.03.03.02.04.02.08.02,0,0,.01,0,.02-.02,0,0,0,.02.01.02-.01.02-.02.04-.03.06,0,.01-.03,0-.03.02,0,.02.02.02.02.04.01.03.03.04.05.06.02.02,0,.04.01.07,0,.03,0,.04,0,.06,0,.03-.05.03-.05.06,0,0,0,0,0,.02,0,.02-.02.03-.03.05.01.02.02.04.04.05.04.02.08.03.08.07,0,0,.01-.02.02-.02h.04s.03,0,.05,0c.04,0,.06-.03.1-.05.03-.02.06-.03.06-.06,0-.04-.04-.06-.04-.11,0-.02.03-.03.03-.06h-.03s-.02-.04-.04-.05c-.01,0-.03-.01-.03-.03,0-.02.02-.02.02-.04,0-.01,0-.02,0-.03,0,0,.02,0,.03-.02-.01-.01-.02-.03-.02-.05.01,0,.02,0,.03-.02,0,.02.01.04.03.04s.02-.03.02-.04c0-.02-.01-.03-.02-.05h0s.01,0,.02.02c.04.02.08.05.08.1-.04.05-.05.05,0,.01.03,0,.03.03.04.05.01.03.03.04.04.08,0-.01,0-.03.02-.03.05,0,.07.05.13.06.01-.02.02-.03.02-.06,0,0,0-.01,0-.02,0,0,0,0,0,0,0,0,0,0,.02.01v-.02h.02s0,0,0,0c0,.02,0,.02,0,.04,0,0,0,0,0,.02.03-.01.05-.03.09-.03,0-.01-.01-.02-.01-.04.01,0,.02.01.02.02,0,.01.03.01.03.02,0,.02-.04.02-.04.05,0,0,0,0,0,.01,0,0,0,.01,0,.02,0,.02.03.02.05.02.01,0,.02,0,.03,0,0-.03.01-.05.02-.08.02.02.03.04.03.07,0,0,0,0,0,0,0,0,0,0,.02,0h.04s.03,0,.05,0c0-.02-.01-.03-.01-.04,0-.03.01-.04.02-.07,0,.01.01.03.03.03,0,0,.01,0,.02,0h0s-.02.04-.02.06c0,.03.01.04.02.07.02.05.04.1.1.1,0,0,.01,0,.02,0,.02.04.03.06.04.11h0s-.01-.01-.02-.01c0,0,0,0-.02,0h-.06s-.02-.01-.04-.01c-.04,0-.04.06-.07.06-.04,0-.06-.03-.11-.03,0,0-.01,0-.02,0-.03,0-.04-.02-.06-.02-.02,0-.03.02-.05.02-.02,0-.03-.02-.05-.02-.04,0-.07.04-.08.08,0,.03-.02.04-.02.07,0,.01.01.02.01.03,0,.02,0,.03,0,.04,0,0,0,0,0,.02.02,0,.02-.02.04-.02.02,0,.02.02.03.04,0,.01.01.02.02.03,0,0,.01.02.03.03.03.02.07.01.09.05.02.05.03.09.06.14.01.03.03.04.03.07.05,0,.07.04.11.04.01,0,.03,0,.03,0,0-.04-.03-.06-.06-.08-.02-.01-.03-.03-.05-.03v-.05c.06.03.1.05.16.09.03.02.06.02.09.04.02.01.02.06.05.06.02,0,.02-.02.04-.02.02,0,.02.02.03.04,0,0,0,0,0,0,.03,0,.06,0,.06.03,0,.03-.02.06-.06.06-.05,0-.07-.01-.11-.02-.03,0-.05-.01-.06-.03,0,.04-.06.04-.1.04h-.04s-.09.03-.09.07c0,.02,0,.04.02.05.01.02.04.02.04.04,0,.01,0,.02,0,.03,0,.01-.01.02-.01.04h0s.01.02.02.02c.04,0,.07-.04.07-.08.01,0,.02,0,.03,0,0-.02.02-.04.04-.04.03,0,.05.02.07.04,0,0,.02.01.03.01.01,0,.02,0,.04,0,.03.01.03.05.06.06,0,0,0,0,0-.01.02.03.03.05.06.05.04,0,.03-.08.07-.08.04,0,.09.02.09.06,0,.03-.02.05-.04.07-.04.04-.05.07-.07.13h0s0-.01.02-.01c.01,0,.03,0,.03.02,0,.02-.01.03-.01.05,0,.03,0,.04,0,.07,0,.05-.03.07-.03.12,0,.01,0,.02,0,.03,0,0-.01,0-.02.01-.01.02,0,.04,0,.05,0,.01-.03.01-.03.03,0,0,0,0,0,.01v.04s-.01,0-.02,0c0,.02.01.03.01.05,0,0,0,0,0,.01,0,0,0,0,0,.01s0,0,0,.02c0,0,0,0-.01,0-.02,0-.02-.02-.04-.02-.01,0-.02.01-.03.01-.04,0-.06-.02-.1-.04-.04-.03-.06-.07-.09-.11-.02-.02-.04-.02-.06-.05-.04-.05-.04-.09-.04-.15v-.05s-.04-.02-.05-.04c.02-.01.04,0,.06-.01.03-.01.05-.03.06-.06.03,0,.03.04.06.04.05,0,.07-.04.12-.04,0,0,0,0,.01,0,0-.02,0-.03,0-.05,0-.02,0-.04-.02-.05l-.08.02-.08-.02s-.03.05-.05.08c-.01.01-.03.01-.04.03,0,0,0,.02,0,.03-.03.01-.05,0-.08,0-.02,0-.02.03-.05.03-.02,0-.02-.02-.03-.04-.03-.02-.05,0-.08-.02,0,0,0,.01-.01.02-.04-.03-.07-.03-.1-.06-.02-.02-.02-.05-.04-.05-.01,0-.02,0-.03,0-.03,0-.03-.03-.05-.05,0,0,0,0,0,0-.02-.02-.04-.04-.06-.06-.02-.02-.04-.03-.07-.03-.04,0-.04.05-.08.05-.04,0-.05-.04-.07-.07.01-.01.02-.02.02-.04,0-.01-.01-.02-.02-.02,0-.02,0-.03,0-.05,0-.02.04-.03.04-.05,0-.01-.01-.02-.01-.03,0-.02.02-.02.02-.04,0-.03-.02-.04-.05-.05-.01,0-.02-.01-.03-.02-.04-.03-.04-.07-.05-.11-.03-.09-.07-.14-.15-.18-.08-.05-.14-.03-.21-.09-.01-.01-.03,0-.04-.02-.02-.01-.03-.03-.05-.05-.03-.02-.05-.03-.07-.05-.01-.01-.01-.03-.03-.03.01-.03.04-.04.04-.07s-.02-.05-.05-.07c-.03-.03-.05-.05-.1-.05,0,0-.01,0-.02,0,0,0,.01-.01.02-.02-.03-.02-.05-.05-.09-.05,0,0-.01,0-.02,0-.03,0-.03-.04-.03-.06,0-.02-.02-.02-.03-.03-.02-.02-.04,0-.06-.02-.02-.01-.02-.02-.04-.03,0,0,0,0,0-.02,0,0-.01,0-.02,0-.01,0-.01.02-.03.02-.06,0-.1-.02-.16-.05.03.06.05.09.1.14.03.03.06.04.06.09,0,.02-.02.02-.02.04,0,.02.02.02.02.04,0,.02-.04.02-.04.04,0,.03.02.04.02.06,0,0-.01.01-.01.02,0,.04.04.05.07.08,0,0,0,0,0,.02.06.02.08.06.14.09,0,.02-.02.02-.02.04,0,.02.03.03.04.05.02.05.02.08.03.14.01.08.03.12.05.2-.05,0-.07.04-.12.07-.01,0-.02.02-.03.02-.07,0-.07-.1-.14-.12,0-.02.02-.04.02-.06,0-.07,0-.11-.04-.16-.02-.03-.04-.04-.06-.06-.03-.04-.03-.08-.06-.11-.02-.02-.05-.03-.07-.05-.02-.01-.02-.05-.04-.05-.03,0-.04.02-.06.02,0,0,0,0-.01,0v-.03s-.01.01-.03.01c-.05,0-.06-.06-.08-.1-.02-.05-.05-.07-.08-.11-.02-.02-.03-.06-.06-.06-.01,0-.02,0-.03,0-.03,0-.04-.01-.06-.02-.02,0-.05,0-.06-.02,0-.02,0-.04-.01-.05-.03-.02-.06-.01-.1-.03-.02,0-.01-.03-.02-.04-.02-.02-.04,0-.07-.01h-.08s-.02-.04-.02-.07Z"/>
    <path class="cls-2" d="m30.56,30.41s-.06-.03-.06-.06c0-.03.02-.05.05-.06.03-.01.04-.03.07-.03,0,0,0,0,.02,0,.04,0,.07,0,.11,0,.01,0,.02-.01.03-.01.03,0,.03.04.05.07.02.03.04.04.04.07,0,.08-.04.12-.09.19-.02-.04-.06-.03-.09-.05-.02-.01,0-.03-.02-.05,0-.02-.03-.02-.04-.03-.03-.01-.04-.02-.07-.04Z"/>
    <path class="cls-2" d="m31.47,32.16s.02,0,.03.01c-.02.02-.03.05-.06.06v-.03s0-.04.03-.04Z"/>
    <path class="cls-2" d="m31.48,32.02s.02-.07.05-.09c0,0,.02.02.02.03,0,.04-.03.05-.07.06Z"/>
    <path class="cls-2" d="m31.51,32.11s0-.02,0-.02c0-.01,0-.03.02-.03.01,0,.02,0,.02.02,0,.02-.02.03-.04.03Z"/>
    <path class="cls-2" d="m29.79,33.15s0-.02,0-.04c0,0,0-.01,0-.02,0-.03.03-.04.05-.06.02-.03.01-.05.02-.08,0-.03.02-.05.02-.09,0-.07-.07-.09-.07-.16,0-.05.03-.08.04-.13.02-.05.02-.09.05-.13.03-.05.07-.08.07-.13v-.05c-.01-.06-.02-.09-.02-.14,0-.04.02-.06.02-.1,0-.04-.02-.05-.02-.09,0-.01.01-.01.02-.02.01-.02.02-.03.02-.05,0-.02-.01-.04-.01-.06,0-.02.01-.03.01-.05,0,0,0-.01,0-.02,0-.01.02-.01.03-.03.01-.02,0-.04,0-.06,0-.01,0-.02,0-.04,0-.05.03-.08.03-.13,0-.02-.02-.03-.02-.06,0,0,.02,0,.02-.02,0-.04-.06-.05-.1-.06-.05,0-.07-.05-.13-.05-.04,0-.06.01-.1.01,0,0,0,0-.02,0,.04-.04.05-.08.05-.13,0-.01,0-.02,0-.04,0-.02.01-.04.03-.05.02,0,.05,0,.05-.02,0-.03-.04-.05-.04-.08,0,0,0,0,0,0,.02.02.02.04.04.06.02.02.05.03.08.05.03.01.03.04.05.06.04.04.08.05.13.06.07.01.1.04.16.07.04.02.06.05.11.05h.07s.04.04.04.07c0,.01-.01.02-.01.03,0,.02.03.02.05.03.04.02.06.04.11.06.03.01.05.01.08.03.01,0,.02.02.02.03,0,.01,0,.03.02.03,0,0,0,0,.02,0h.03s0-.04.02-.06c.01.01.02.02.03.03,0-.02.04-.01.06-.03.01-.02,0-.03,0-.05h.17s.02.03.03.04c.01.02.03.02.03.05,0,.03.06.02.06.05,0,.03.03.05.06.05.05,0,.07-.03.11-.06.03-.02.06-.04.08-.06.03-.02.05-.04.09-.07,0,.01,0,.02,0,.03,0,.01,0,.02,0,.03,0,.03,0,.04-.01.07h0s.02-.02.04-.02h.01s0,0,0,0c0,.02-.02.02-.02.04,0,0,0,.01.02.01.02,0,.02-.02.03-.04h0s.01.01.01.02v.04s-.01.02-.02.02c-.02,0-.03-.02-.04-.03h-.02s0,0,0,0c0,0,0,.01,0,.02-.01,0-.02,0-.03,0,0,.01-.01.02-.01.03,0,.02,0,.02,0,.04,0,.03-.02.05-.04.07-.02.03-.02.06-.05.08.01.01.02.02.02.04v.05s.03.01.03.03c0,.02.01.03.01.06,0,.02-.02.03-.04.03-.03,0-.05-.01-.08-.01h-.01s0,.07-.02.11c-.01.03-.04.03-.06.06-.01,0-.02.02-.03.02-.01,0-.02-.01-.03-.02,0,.03-.03.04-.05.04-.02,0-.03,0-.05,0v.05s-.06-.02-.09,0c-.01.01,0,.03,0,.05v.09s0,.09-.04.12c-.02.01-.02.03-.04.03,0,0,0,0,0,0h-.06s-.03.02-.05.02c0,0-.02,0-.03,0,0,0-.01,0-.02,0,0,.06-.03.13-.09.13,0,0-.01,0-.02,0-.04,0-.07,0-.11,0s-.06.02-.1.03c-.03,0-.05-.01-.08,0-.03.02-.05.02-.09.03-.02,0-.03.02-.05.02,0,0,0,0-.01,0-.03,0-.06,0-.08.03-.02.02-.03.05-.06.05,0,0-.02,0-.03,0-.04,0-.03.05-.05.08-.02.03-.04.06-.06.08-.01.01-.03.03-.04.05-.02.02-.02.04-.05.04-.03,0-.07-.02-.07-.05Z"/>
    <path class="cls-2" d="m31.65,31.71s.03.02.03.03c0,0,0,0-.02,0,0,0,0,.02-.02.02,0,0,0,0,0,0,0-.02,0-.03,0-.04,0,0,.01-.02.02-.02Z"/>
    <path class="cls-2" d="m31.11,34.83s0-.02,0-.03c0-.02-.01-.02-.02-.04,0-.01,0-.02,0-.03-.01-.02-.03,0-.05-.02-.01,0-.01-.03-.03-.03,0,0-.01,0-.02,0-.04,0-.05-.03-.09-.03-.07,0-.11-.03-.16-.06-.01,0-.02-.02-.04-.03-.05-.04-.06-.09-.1-.14,0-.01-.02,0-.04-.01-.03-.02-.02-.05-.03-.08,0-.01-.03-.01-.03-.03,0-.01.01-.02.01-.03,0-.02-.01-.03-.03-.04h-.02s-.03-.02-.04-.04c0,0-.01,0-.01-.01,0-.03.01-.04.01-.07,0-.01,0-.02,0-.04v-.05s0,0,0-.01c0-.03.03-.05.05-.07.03-.03.05-.06.05-.1,0-.03.02-.05.05-.05h.05s.05,0,.08,0c.02,0,.04.02.06.02,0,0,.01,0,.02,0,.06-.03.1-.05.15-.09.02-.01.02-.03.04-.04.04-.02.08,0,.11-.04v-.04s-.01-.04-.02-.07c0-.03,0-.05-.03-.07h0s.02,0,.02,0c0-.04,0-.06,0-.1,0,0,0-.01,0-.02,0-.03.02-.04.02-.07,0-.05-.06-.07-.06-.12,0-.02,0-.03,0-.06,0-.03-.03-.04-.03-.06,0-.03.03-.04.06-.05.01.01.02.02.03.04.02-.01.02-.03.03-.05.02-.03.05-.04.06-.08,0-.02,0-.03,0-.06.02-.06.05-.09.05-.16,0-.02-.01-.03-.03-.04v-.04s0-.03,0-.05c0-.03.03-.03.05-.04.05-.03.08-.02.14-.02.03,0,.04-.04.07-.06.03-.02.06-.01.09-.02.02,0,.03-.03.04-.04.02.01.04.01.06.03.03.02.05.05.09.05.04,0,.06-.02.09-.02.05,0,.05.07.1.07.02,0,.02-.03.04-.03.04,0,.02.06.03.09,0,.02.01.03.03.04.02,0,.04,0,.04.01,0,.07-.04.1-.07.17-.04.08-.04.13-.07.22-.02.05-.02.09-.06.12-.03.02-.05.02-.08.04-.02.02-.02.04-.03.07,0,0,0,.02,0,.03,0,.02-.01.04-.01.07v.05c0,.07-.04.1-.05.16-.03.09-.04.15-.08.23-.02.03-.04.04-.06.06,0,.03,0,.06-.03.08-.01.01-.04.01-.04.03,0,.01,0,.02,0,.04v.09s0,.08,0,.08c0,.07.01.11.01.17v.05s0,.03-.02.04c.03.04.01.09.06.12.02.02.05,0,.07.03v.02s0,.07.04.11c.02.03.06.03.06.07,0,.09-.04.13-.08.21-.01.02-.03.04-.04.06,0,.01,0,.03-.02.04-.04.04-.08.05-.12.08-.03-.01-.04-.02-.07-.02-.04,0-.05.03-.09.03-.02,0-.02-.01-.03-.02-.06-.02-.1-.07-.12-.13-.01-.04-.02-.06-.02-.1,0-.02-.02-.03-.02-.05Z"/>
    <path class="cls-2" d="m31.29,29.31h0s.03.02.03.02c0,0,.01,0,.02,0,.02,0,.03.02.04.04.02.04.03.05.06.08.03.03.04.06.06.09.01.02.04.03.04.06,0,0,0,.01,0,.02,0,.03.03.05.06.05.01,0,.02,0,.02-.02.02,0,.03.02.05.03.01,0,.03,0,.03.02,0,.03,0,.06.01.09,0,.04.03.07.06.1.03.02.06.03.06.07v.02h-.01s-.06-.03-.08-.07c-.02-.03-.02-.06-.04-.08-.01-.01-.02-.02-.03-.03-.02-.02-.05,0-.08-.02-.02-.01-.03-.03-.04-.05h-.05s0-.02-.02-.03c-.02-.02-.03-.03-.05-.05-.02-.02-.05-.03-.05-.06,0-.02-.02-.02-.03-.02h-.06s-.03-.02-.05-.04c0,0-.02-.01-.02-.02v-.05s0-.01,0-.02c0-.01-.01-.02-.02-.03.01-.03.01-.04.04-.06.02-.01.04,0,.06,0Z"/>
    <path class="cls-2" d="m30.59,33.18s0-.01,0-.02c0-.02-.03-.02-.03-.04,0-.04.05-.05.05-.09,0-.02,0-.03,0-.05,0-.07.06-.09.1-.14.04-.05.06-.1.12-.1.02,0,.02.02.04.02.04.03.04.07.04.13,0,.06-.02.1-.06.15-.02.03-.03.05-.05.09-.01.03-.02.06-.05.06h-.04s-.04.03-.07.03c-.02,0-.04-.02-.04-.04Z"/>
    <path class="cls-2" d="m32.09,32.44s-.01.01-.02.01-.02,0-.02-.02c0-.01,0-.02.01-.02h0s.02.02.02.03Z"/>
    <path class="cls-2" d="m32.08,30.05s.04-.05.06-.08c.02-.02.04.03.06.05.04.03.07.03.11.06.01.01,0,.03.02.05.03.08.03.14.05.23,0,.04.04.05.04.08,0,0,0,.02-.02.02-.04,0-.05-.03-.07-.06-.05-.05-.07-.08-.09-.14-.01-.03-.03-.03-.05-.06-.03-.04-.04-.08-.07-.12-.01-.02-.04-.02-.04-.04Z"/>
    <path class="cls-2" d="m32.22,34.88s-.02.02-.02.04c0,.03.03.04.05.07-.02.02-.02.04-.05.04-.01,0-.02-.01-.03-.02-.01.03-.03.04-.06.04-.05,0-.05-.05-.1-.07-.04-.01-.09-.02-.09-.06,0-.02.02-.03.02-.05.01,0,.02.01.04.01s.02,0,.04-.01c.04-.01.08-.01.09-.05,0-.02,0-.05.02-.06h0s.04.04.05.07c0,.02.02.03.02.05Z"/>
    <path class="cls-2" d="m32.24,33.61s0,.04,0,.05c-.01.03-.05.02-.06.04-.01.02-.01.04-.02.06v.04c0,.05-.03.08-.03.14,0,0,0,.01,0,.02,0,.02-.02.01-.04.02-.02,0-.02.03-.04.06,0,.01-.03.02-.03.03,0,0,0,0,0,.01,0,.03-.03.04-.04.07-.02.06-.03.1-.05.16,0,.03,0,.04-.02.07-.02.03-.02.05-.05.08-.01.02-.03.01-.05.03-.04.06-.06.1-.13.12,0-.03,0-.04,0-.07,0-.13.03-.2.05-.32,0-.05,0-.08.01-.13,0-.02.02-.02.03-.03,0-.03,0-.05.01-.08,0-.03.03-.05.03-.08,0-.02-.04-.02-.04-.04,0-.02,0-.03,0-.06h.04s0-.07.02-.1c0,0,.02,0,.03,0,.02-.01.03-.03.04-.05.01-.03.03-.04.05-.06.02-.02.01-.05.03-.07.04-.04.07-.07.07-.12v-.02c.02-.11.1-.14.14-.24.01-.03.03-.04.03-.07v-.06s.05-.05.05-.09c0,0,0,0,0-.02,0-.04.04-.04.06-.07,0-.02.02-.03.02-.05,0-.02.01-.03.03-.03,0,0,.01,0,.02,0,0-.04.02-.06.04-.1.03-.05.03-.09.04-.15.01-.04.04-.06.04-.1,0-.03,0-.05-.03-.06.05-.05.07-.1.07-.17,0-.01,0-.02,0-.03,0-.03,0-.04.02-.06.02-.02.05-.02.05-.05,0-.01,0-.02,0-.03,0,0,0,0,0,0,.03,0,.05,0,.08-.01.01,0,.02.02.02.04,0,.02-.02.02-.03.04-.03.07-.03.12-.03.19,0,.06.02.09.02.14,0,.03,0,.05,0,.08,0,.03.02.04.02.06,0,.05-.01.08-.02.13,0,.03-.04.03-.04.05s0,.04.01.07c.01.09.02.13.02.22,0,.04,0,.06,0,.09-.01.04-.04.07-.04.11,0,.01,0,.02,0,.03,0,0,0,.01.01.02-.02.02-.03.03-.05.05,0,0,.02.01.02.03,0,0,0,0,0,0,.02,0,.03,0,.05-.01-.03.05-.05.08-.1.11-.02.01-.04.03-.06.03-.02,0-.02-.03-.02-.05,0-.02.02-.03.03-.06-.02,0-.02.02-.04.03,0,0-.02,0-.02,0,0,0,0,.02,0,.03-.02.03-.06.04-.1.04-.01,0-.02,0-.03,0-.03,0-.03.03-.05.05-.03.04-.08.04-.09.09Z"/>
    <path class="cls-2" d="m32.14,32.3v-.03s.02-.07.05-.09c-.01,0-.02-.01-.03-.02.04-.02.07-.03.11-.04,0-.03-.02-.05-.05-.07,0-.02.03-.03.04-.05.01-.02.01-.05.03-.05,0,0,0,0,0,0,.02.05.03.09.06.14,0,.02.01.03.03.03,0,0,.02,0,.02.01,0,.02-.02.02-.03.04,0,0-.01,0-.02,0-.04,0-.06,0-.09.03-.02.01-.02.03-.03.04-.04.03-.06.05-.1.09h0v-.02Z"/>
    <path class="cls-2" d="m32.05,30.31s.03.09.08.11c.01,0,.03,0,.04,0,.01,0,0,.02.01.03.02.02.05.02.07.03.03.02.03.04.04.08.02.04.04.06.07.08.02-.01.01-.04.04-.04.04,0,.05.04.08.07.02,0,.02-.02.04-.04.03.04.03.07.05.11.02.03.04.05.06.08.02.03.04.04.06.07.01.02,0,.03.02.05.02.03.05.04.05.08,0,0,0,0,0,0,0,0-.02-.01-.03-.02,0,.02,0,.03,0,.05,0,.05.06.06.06.11,0,.02-.02.03-.02.06,0,.05.02.07.03.12-.03-.02-.06-.02-.07-.05-.05-.08-.08-.13-.17-.16-.02,0-.02-.02-.04-.03-.04-.02-.06-.04-.11-.05-.03,0-.06,0-.09,0-.02-.01-.03-.03-.03-.06,0-.01.02-.01.02-.03,0-.03-.04-.04-.07-.06-.03-.02-.04-.04-.07-.07-.02-.02-.03-.03-.03-.05,0-.04-.03-.05-.05-.08-.02-.04-.06-.07-.11-.07-.07,0-.1.06-.14.12-.01.02-.02.04-.03.05-.02.02-.04.02-.05.04,0,.02,0,.04-.02.05-.02.02-.05.02-.07.04-.02.02-.02.05-.05.06-.04.02-.06.04-.08.08-.01-.02-.02-.03-.04-.05.05-.08.1-.12.1-.21,0-.03,0-.04,0-.07.04,0,.08-.02.08-.06-.02,0-.03.02-.05.02,0,0,0,0,0,0,.02-.02.04-.03.06-.05.01-.01.03-.02.03-.03,0-.01,0-.02,0-.04-.03.01-.04.02-.07.02-.01-.03-.02-.06-.02-.09,0,0,0,0,0,0h.02s0,0,0,0c.01,0,.01-.02.02-.03,0-.03.02-.04.02-.07,0,0,0,0,0-.01-.01.01-.02.02-.03.02.01-.09.03-.13.03-.22,0-.05-.02-.08-.02-.13,0,0,0,0,0,0,.03.02.05.03.08.03.03,0,.07.02.07.05,0,0-.01,0-.01.02,0,.03.03.04.04.06,0-.02.03-.03.04-.05.09,0,.12.05.2.1h.02Z"/>
    <path class="cls-2" d="m32.94,30.37s0,.02-.01.03c-.05-.01-.07-.06-.07-.11,0-.01,0-.02.02-.03.02.01.01.03.03.05.01.02.04.03.04.05Z"/>
    <path class="cls-2" d="m32.97,29.28s0,0,0,0c-.02,0-.03,0-.05,0-.02,0-.03,0-.05,0-.04,0-.07-.02-.1-.05.03-.02.06-.02.09-.04.02,0,.03.02.04.02h.04s.03.03.03.06Z"/>
    <path class="cls-2" d="m33,30.85s-.05.04-.09.06h0s0-.02,0-.03c0-.04.06-.03.1-.03Z"/>
    <path class="cls-2" d="m33.1,31.04s.02-.02.04-.02c0,.04-.03.05-.06.08,0,0-.01-.02-.01-.03,0-.02.02-.02.03-.03Z"/>
    <path class="cls-2" d="m33.08,30.4s-.02.03-.03.05c-.02-.05-.04-.08-.04-.13v-.02h.02s0,.03.01.04c0,.02.03.03.03.05Z"/>
    <path class="cls-2" d="m32.71,28.6h0s.04-.04.06-.06c.02,0,.03,0,.05-.02.02-.03.01-.06.02-.09,0-.03.02-.04.02-.06v-.05s0-.03-.01-.04c.02-.01.02-.03.02-.05,0-.04-.03-.05-.03-.09,0-.02.02-.03.02-.06,0-.01,0-.02,0-.03,0,0,0-.01,0-.02,0,.01.02.02.03.02.03-.03.04-.04.06-.07.03.04.05.07.08.11,0,.02.03.02.03.04,0,0,0,.01,0,.02,0,.01.01.02.03.02.01,0,.02-.02.03-.02.03,0,.05.03.05.06v.05s.08.02.08.06c0,0,0,.01-.02.02.02.01.02.03.02.05,0,.05-.02.07-.04.11,0,0,.01,0,.02,0v.02s0,.01,0,.02c0,0,0,.01,0,.02,0,.05-.08.04-.08.09,0,0,.01.01.01.02,0,.04-.04.05-.04.09-.02-.01-.02-.02-.03-.04,0,0,0-.02-.01-.02,0,0-.01,0-.02,0-.01,0-.02,0-.03,0-.04,0-.07.03-.07.07v.04h-.03s-.02-.02-.04-.03c-.05-.04-.07-.09-.13-.09,0,0-.01,0-.02.01,0-.02-.02-.03-.02-.05v-.02s0-.02-.02-.02Z"/>
    <path class="cls-2" d="m33.16,31.23s0,0,0,.01c0,0,0,.01,0,.02,0,0,0,0,0,0-.02,0-.03.01-.05.01s-.02-.02-.02-.04c0,0,0-.01,0-.02.02,0,.03,0,.05-.01,0,0,.02,0,.02.02Z"/>
    <path class="cls-2" d="m33.29,31.12s-.04,0-.04-.02c0-.02.03-.02.04-.05.01,0,.02,0,.02.03v.04h-.02Z"/>
  </g>
  <text class="cls-4" transform="translate(71.86 46.93)"><tspan class="cls-10" x="0" y="0">N</tspan><tspan class="cls-11" x="8.6" y="0">A</tspan><tspan x="16" y="0">TIO</tspan><tspan class="cls-10" x="36.31" y="0">N</tspan><tspan x="44.9" y="0">AL COMMISSION ON INDIGENOUS PEOPLES</tspan></text>
  <text class="cls-6" transform="translate(71.86 23.03)"><tspan x="0" y="0">REPUBLIC OF</tspan><tspan class="cls-13" x="62.67" y="0"> </tspan><tspan x="65.11" y="0">THE PHILIPPINES</tspan></text>
  <text class="cls-6" transform="translate(71.86 34.69)"><tspan x="0" y="0">OFFICE OF</tspan><tspan class="cls-13" x="50.12" y="0"> </tspan><tspan class="cls-14" x="52.56" y="0">THE PRESIDEN</tspan><tspan class="cls-13" x="122.02" y="0">T</tspan></text>
</svg>